<svg width="45" height="45" viewBox="0 0 45 45" fill="none" xmlns="http://www.w3.org/2000/svg">
<path d="M3.70733 20.9976C3.70366 24.4845 4.61865 27.908 6.35642 30.925L3.05285 40.6792L2.4186 42.5519L4.3029 41.953L14.5042 38.7107L23.8537 39.9962V40.9962C23.8541 40.9962 23.8545 40.9962 23.8549 40.9962C34.9759 40.9956 44 32.0514 44 20.9993V20.9912C44 20.8376 44 20.6597 43.9912 20.4763C43.7105 9.66565 34.8027 1 23.8537 1C13.0329 1 4.19897 9.47486 3.72704 20.1212L3.72699 20.1212L3.72663 20.1316L3.7266 20.1327C3.71732 20.4065 3.70734 20.7006 3.70733 20.9976ZM3.70733 20.9976C3.70733 20.9974 3.70733 20.9972 3.70733 20.997L4.70733 20.9981H3.70733C3.70733 20.9979 3.70733 20.9978 3.70733 20.9976Z" fill="#3CB5E7" stroke="white" stroke-width="2"/>
</svg>
