<svg width="71" height="85" viewBox="0 0 71 85" fill="none" xmlns="http://www.w3.org/2000/svg">
<path d="M45.5189 63.5046V66.0046" stroke="white" stroke-width="2"/>
<path d="M29.5189 83.5046H40.5189C40.8522 83.5046 41.6189 83.3046 42.0189 82.5046C42.4189 81.7046 43.1855 79.5046 43.5189 78.5046" stroke="white" stroke-width="2"/>
<path d="M26.5189 78.5046L28.0189 82.5046C28.1855 82.838 28.7189 83.5046 29.5189 83.5046" stroke="white" stroke-width="2"/>
<path d="M34.5189 19.0046C41.6855 18.838 56.0189 23.1046 56.0189 41.5046" stroke="white" stroke-width="2"/>
<path d="M56.0189 41.5046C56.0189 43.5046 54.9189 48.9046 50.5189 54.5046C46.1189 60.1046 45.3522 63.1713 45.5189 64.0046L45.5189 64.5046" stroke="white" stroke-width="2"/>
<path d="M34.5189 19.0046C27.8522 19.0046 14.4189 23.4046 14.0189 41.0046C13.8522 43.0046 14.7189 48.5046 19.5189 54.5046C24.3189 60.5046 24.8522 63.6713 24.5189 64.5046" stroke="white" stroke-width="2"/>
<path d="M28.5189 73.0046C29.0711 73.0046 29.5189 72.5569 29.5189 72.0046C29.5189 71.4524 29.0711 71.0046 28.5189 71.0046V73.0046ZM24.0189 73.0046H28.5189V71.0046H24.0189V73.0046Z" fill="white"/>
<path d="M41.5189 71.0046C40.9666 71.0046 40.5189 71.4524 40.5189 72.0046C40.5189 72.5569 40.9666 73.0046 41.5189 73.0046V71.0046ZM46.0189 71.0046H41.5189V73.0046H46.0189V71.0046Z" fill="white"/>
<path d="M45.5189 66.0046H24.5189C23.3189 66.0046 23.0189 67.0046 23.0189 67.5046V76.5046C23.0189 77.7046 24.0189 78.0046 24.5189 78.0046H45.5189C46.7189 78.0046 47.0189 77.0046 47.0189 76.5046V67.5046C47.0189 66.3046 46.0189 66.0046 45.5189 66.0046Z" stroke="white" stroke-width="2"/>
<path d="M24.5189 63.5046V66.0046" stroke="white" stroke-width="2"/>
<path d="M35 15V1" stroke="white" stroke-width="2" stroke-linecap="round"/>
<path d="M58 27.8287L69.6065 20" stroke="white" stroke-width="2" stroke-linecap="round"/>
<path d="M12.6065 27.8287L1 20" stroke="white" stroke-width="2" stroke-linecap="round"/>
<path d="M49.0023 18.7886L54.6966 5.99896" stroke="white" stroke-width="2" stroke-linecap="round"/>
<path d="M20.6943 18.7896L15 6" stroke="white" stroke-width="2" stroke-linecap="round"/>
</svg>
