<svg width="44" height="40" viewBox="0 0 44 40" fill="none" xmlns="http://www.w3.org/2000/svg">
<g id="Icons" clip-path="url(#clip0_2479_6194)">
<path id="Vector" d="M39.7692 3.33333H33.8462V2.5C33.8462 1.125 32.7038 0 31.3077 0C29.9115 0 28.7692 1.125 28.7692 2.5V3.33333H15.2308V2.5C15.2308 1.125 14.0885 0 12.6923 0C11.2962 0 10.1538 1.125 10.1538 2.5V3.33333H4.23077C1.89538 3.33333 0 5.2 0 7.5V35.8333C0 38.1333 1.89538 40 4.23077 40H39.7692C42.1046 40 44 38.1333 44 35.8333V7.5C44 5.2 42.1046 3.33333 39.7692 3.33333ZM30.4615 2.5C30.4615 2.04167 30.8423 1.66667 31.3077 1.66667C31.7731 1.66667 32.1538 2.04167 32.1538 2.5V7.5C32.1538 7.95833 31.7731 8.33333 31.3077 8.33333C30.8423 8.33333 30.4615 7.95833 30.4615 7.5V2.5ZM11.8462 2.5C11.8462 2.04167 12.2269 1.66667 12.6923 1.66667C13.1577 1.66667 13.5385 2.04167 13.5385 2.5V7.5C13.5385 7.95833 13.1577 8.33333 12.6923 8.33333C12.2269 8.33333 11.8462 7.95833 11.8462 7.5V2.5ZM42.3077 35.8333C42.3077 37.2083 41.1654 38.3333 39.7692 38.3333H4.23077C2.83462 38.3333 1.69231 37.2083 1.69231 35.8333V13.3333H39.7692C40.2346 13.3333 40.6154 12.9583 40.6154 12.5C40.6154 12.0417 40.2346 11.6667 39.7692 11.6667H1.69231V7.5C1.69231 6.125 2.83462 5 4.23077 5H10.1538V7.5C10.1538 8.875 11.2962 10 12.6923 10C14.0885 10 15.2308 8.875 15.2308 7.5V5H28.7692V7.5C28.7692 8.875 29.9115 10 31.3077 10C32.7038 10 33.8462 8.875 33.8462 7.5V5H39.7692C41.1654 5 42.3077 6.125 42.3077 7.5V35.8333Z" fill="#8AB61D"/>
<path id="Vector_2" d="M11 18.3333H7.61538C7.15 18.3333 6.76923 18.7083 6.76923 19.1667C6.76923 19.625 7.15 20 7.61538 20H11C11.4654 20 11.8461 19.625 11.8461 19.1667C11.8461 18.7083 11.4654 18.3333 11 18.3333ZM19.4615 18.3333H16.0769C15.6115 18.3333 15.2308 18.7083 15.2308 19.1667C15.2308 19.625 15.6115 20 16.0769 20H19.4615C19.9269 20 20.3077 19.625 20.3077 19.1667C20.3077 18.7083 19.9269 18.3333 19.4615 18.3333ZM27.9231 18.3333H24.5385C24.0731 18.3333 23.6923 18.7083 23.6923 19.1667C23.6923 19.625 24.0731 20 24.5385 20H27.9231C28.3885 20 28.7692 19.625 28.7692 19.1667C28.7692 18.7083 28.3885 18.3333 27.9231 18.3333ZM33 20H36.3846C36.85 20 37.2308 19.625 37.2308 19.1667C37.2308 18.7083 36.85 18.3333 36.3846 18.3333H33C32.5346 18.3333 32.1538 18.7083 32.1538 19.1667C32.1538 19.625 32.5346 20 33 20ZM11 25H7.61538C7.15 25 6.76923 25.375 6.76923 25.8333C6.76923 26.2917 7.15 26.6667 7.61538 26.6667H11C11.4654 26.6667 11.8461 26.2917 11.8461 25.8333C11.8461 25.375 11.4654 25 11 25ZM19.4615 25H16.0769C15.6115 25 15.2308 25.375 15.2308 25.8333C15.2308 26.2917 15.6115 26.6667 16.0769 26.6667H19.4615C19.9269 26.6667 20.3077 26.2917 20.3077 25.8333C20.3077 25.375 19.9269 25 19.4615 25ZM27.9231 25H24.5385C24.0731 25 23.6923 25.375 23.6923 25.8333C23.6923 26.2917 24.0731 26.6667 24.5385 26.6667H27.9231C28.3885 26.6667 28.7692 26.2917 28.7692 25.8333C28.7692 25.375 28.3885 25 27.9231 25ZM36.3846 25H33C32.5346 25 32.1538 25.375 32.1538 25.8333C32.1538 26.2917 32.5346 26.6667 33 26.6667H36.3846C36.85 26.6667 37.2308 26.2917 37.2308 25.8333C37.2308 25.375 36.85 25 36.3846 25ZM11 31.6667H7.61538C7.15 31.6667 6.76923 32.0417 6.76923 32.5C6.76923 32.9583 7.15 33.3333 7.61538 33.3333H11C11.4654 33.3333 11.8461 32.9583 11.8461 32.5C11.8461 32.0417 11.4654 31.6667 11 31.6667ZM19.4615 31.6667H16.0769C15.6115 31.6667 15.2308 32.0417 15.2308 32.5C15.2308 32.9583 15.6115 33.3333 16.0769 33.3333H19.4615C19.9269 33.3333 20.3077 32.9583 20.3077 32.5C20.3077 32.0417 19.9269 31.6667 19.4615 31.6667ZM27.9231 31.6667H24.5385C24.0731 31.6667 23.6923 32.0417 23.6923 32.5C23.6923 32.9583 24.0731 33.3333 24.5385 33.3333H27.9231C28.3885 33.3333 28.7692 32.9583 28.7692 32.5C28.7692 32.0417 28.3885 31.6667 27.9231 31.6667Z" fill="#8AB61D"/>
</g>
<defs>
<clipPath id="clip0_2479_6194">
<rect width="44" height="40" fill="white"/>
</clipPath>
</defs>
</svg>
