<svg width="55" height="43" viewBox="0 0 55 43" fill="none" xmlns="http://www.w3.org/2000/svg">
<g clip-path="url(#clip0_3146_894)">
<path d="M21.3465 42.1975L21.9326 30.5045C21.9326 30.5045 15.2773 25.5047 12.7806 14.4056C12.3471 12.8647 12.2748 11.7732 13.5112 11.1071C14.4906 10.5775 16.2728 10.5453 16.9391 12.3029C16.9391 12.3029 20.8247 24.5817 30.5225 26.0745C38.2375 27.2622 40.959 30.1112 41.5129 34.7419C45.5028 31.0342 49.3723 27.0536 51.6122 23.7471C58.428 13.6752 50.8575 0.802536 39.3373 0.802536C34.4402 0.802536 30.1051 3.20213 27.4157 6.87775C24.7263 3.20213 20.3992 0.802536 15.4941 0.802536C4.18259 0.802536 -3.05066 12.7443 2.98642 23.4261C6.75959 30.1112 15.4218 37.5668 21.3545 42.1975H21.3465Z" stroke="#8AB61D" stroke-width="2" stroke-linejoin="round"/>
<path d="M26.2516 16.4119C26.7173 13.2981 29.6234 11.1473 32.7383 11.6127C35.8532 12.0782 38.0047 14.9754 37.539 18.0892C37.0734 21.2031 34.1753 23.3539 31.0524 22.8884C27.9375 22.4229 25.786 19.5258 26.2516 16.4119Z" stroke="#8AB61D" stroke-width="2" stroke-linejoin="round"/>
<path d="M18.8016 8.77977C19.9737 8.33838 21.2743 8.93225 21.7158 10.0959L22.3902 11.8856C22.8317 13.0573 22.2457 14.3574 21.0736 14.8068C19.9015 15.2482 18.5929 14.6544 18.1594 13.4907L17.4851 11.701C17.0435 10.5293 17.6296 9.22919 18.8016 8.77977Z" stroke="#8AB61D" stroke-width="2" stroke-linejoin="round"/>
<path d="M8.91914 13.2579C10.0912 12.8165 11.3918 13.4104 11.8333 14.5741L12.5077 16.3638C12.9492 17.5355 12.3632 18.8356 11.1911 19.285C10.019 19.7264 8.71844 19.1325 8.2769 17.9688L7.60254 16.1792C7.161 15.0075 7.75507 13.7074 8.91914 13.2579Z" stroke="#8AB61D" stroke-width="2" stroke-linejoin="round"/>
<path d="M34.8657 39.6213V35.6006" stroke="#8AB61D" stroke-width="2" stroke-linejoin="round"/>
</g>
<defs>
<clipPath id="clip0_3146_894">
<rect width="55" height="43" fill="white"/>
</clipPath>
</defs>
</svg>
