<svg width="12" height="13" viewBox="0 0 12 13" fill="none" xmlns="http://www.w3.org/2000/svg">
<g id="Icons" clip-path="url(#clip0_2486_6953)">
<path id="Vector" d="M8.74994 13C8.67744 13 8.60744 12.9675 8.55994 12.9125L5.55994 9.4125C5.49744 9.3375 5.48244 9.235 5.52244 9.145C5.56244 9.0575 5.65244 9 5.74994 9H7.49994V6.25C7.49994 6.1125 7.61244 6 7.74994 6H9.74994C9.88744 6 9.99994 6.1125 9.99994 6.25V9H11.7499C11.8474 9 11.9374 9.0575 11.9774 9.145C12.0174 9.2325 12.0049 9.3375 11.9399 9.4125L8.93994 12.9125C8.89244 12.9675 8.82244 13 8.74994 13ZM6.29244 9.5L8.74994 12.365L11.2074 9.5H9.74994C9.61244 9.5 9.49994 9.3875 9.49994 9.25V6.5H7.99994V9.25C7.99994 9.3875 7.88744 9.5 7.74994 9.5H6.29244Z" fill="#8AB61D"/>
<path id="Vector_2" d="M9 0H2.915C2.58 0 2.2675 0.13 2.03 0.365L0.365 2.03C0.13 2.265 0 2.58 0 2.915V11.5C0 12.0525 0.4475 12.5 1 12.5H6.75C6.8875 12.5 7 12.3875 7 12.25C7 12.1125 6.8875 12 6.75 12H1C0.725 12 0.5 11.775 0.5 11.5V3.25C0.5 3.1125 0.6125 3 0.75 3H2C2.5525 3 3 2.5525 3 2V0.75C3 0.6125 3.1125 0.5 3.25 0.5H9C9.275 0.5 9.5 0.725 9.5 1V5.25C9.5 5.3875 9.6125 5.5 9.75 5.5C9.8875 5.5 10 5.3875 10 5.25V1C10 0.4475 9.5525 0 9 0ZM2.5 2C2.5 2.275 2.275 2.5 2 2.5H0.75C0.705 2.5 0.66 2.505 0.6175 2.5125C0.6475 2.465 0.68 2.4225 0.72 2.3825L2.385 0.7175C2.425 0.6775 2.4675 0.645 2.515 0.615C2.5075 0.6575 2.5025 0.7025 2.5025 0.7475V1.9975L2.5 2Z" fill="#8AB61D"/>
<path id="Vector_3" d="M6.75 7H3.25C3.1125 7 3 7.1125 3 7.25C3 7.3875 3.1125 7.5 3.25 7.5H6.75C6.8875 7.5 7 7.3875 7 7.25C7 7.1125 6.8875 7 6.75 7ZM6.75 5.5H3.25C3.1125 5.5 3 5.6125 3 5.75C3 5.8875 3.1125 6 3.25 6H6.75C6.8875 6 7 5.8875 7 5.75C7 5.6125 6.8875 5.5 6.75 5.5ZM3.25 4.5H6.75C6.8875 4.5 7 4.3875 7 4.25C7 4.1125 6.8875 4 6.75 4H3.25C3.1125 4 3 4.1125 3 4.25C3 4.3875 3.1125 4.5 3.25 4.5Z" fill="#8AB61D"/>
</g>
<defs>
<clipPath id="clip0_2486_6953">
<rect width="12" height="13" fill="white"/>
</clipPath>
</defs>
</svg>
