<?xml version="1.0" encoding="UTF-8"?>
<svg id="Ebene_1" data-name="Ebene 1" xmlns="http://www.w3.org/2000/svg" viewBox="0 0 16 18">
  <defs>
    <style>
      .cls-1 {
        fill: #636362;
      }
    </style>
  </defs>
  <path class="cls-1" d="m11,16.88c.04.3-.06.62-.29.83-.39.39-1.02.39-1.41,0l-4.01-4.01c-.23-.23-.33-.54-.29-.83v-5.12L.21,1.62C-.13,1.19-.05.56.38.22c.19-.14.4-.22.62-.22h14c.22,0,.43.08.62.22.43.34.51.97.17,1.4l-4.79,6.13v9.13M3.04,2l3.96,5.06v5.52l2,2v-7.53l3.96-5.05H3.04Z"/>
</svg>