<svg width="49" height="40" viewBox="0 0 49 40" fill="none" xmlns="http://www.w3.org/2000/svg">
<g id="Icons" clip-path="url(#clip0_2479_6222)">
<path id="Vector" d="M19.4344 34.9693C19.7965 36.0112 21.6587 37.4102 24.1933 36.5247L25.0209 33.0046C26.1441 34.0316 28.2206 33.1609 28.2206 33.1609L29.6837 25.0865" stroke="#8AB61D" stroke-width="2" stroke-linejoin="round"/>
<path id="Vector_2" d="M31.4351 23.5609C31.908 23.8735 33.216 24.6995 33.785 25.0493C34.0953 25.2502 34.6052 25.2949 34.9229 25.0865C36.3122 24.1488 48.3054 15.8437 48.2611 8.90791C48.2315 4.37581 44.5441 0.706977 40.0365 0.744187C37.9305 0.75907 35.758 1.73395 34.2505 3.23721C32.7209 1.75628 30.5336 0.811163 28.4275 0.826047C23.9273 0.855814 20.2843 4.5693 20.3138 9.1014C20.3286 11.6316 21.777 14.4819 24.6219 17.5702C25.2057 18.2772 25.6786 18.7609 25.819 18.9247" stroke="#8AB61D" stroke-width="2" stroke-linejoin="round"/>
<path id="Vector_3" d="M22.4198 14.8167L19.1241 24.1637L28.4497 16.8633C29.3069 16.2084 31.1469 15.7395 32.8095 17.7116C34.1101 19.2521 34.014 21.373 32.8391 22.3405L24.2155 29.8344L17.5797 36.9563C16.486 38.1544 15.1781 39.0102 12.6213 39.174L0.857178 39.2558" stroke="#8AB61D" stroke-width="2" stroke-linejoin="round"/>
<path id="Vector_4" d="M0.184753 26.054L4.98795 24.826L14.2618 12.1153C14.2618 12.1153 18.7694 8.96744 20.3951 7.90326" stroke="#8AB61D" stroke-width="2" stroke-linejoin="round"/>
</g>
<defs>
<clipPath id="clip0_2479_6222">
<rect width="49" height="40" fill="white"/>
</clipPath>
</defs>
</svg>
