<svg width="34" height="40" viewBox="0 0 34 40" fill="none" xmlns="http://www.w3.org/2000/svg">
<g id="Icons" clip-path="url(#clip0_2479_6230)">
<path id="Vector" d="M26.2225 40C24.1541 40 22.1708 39.1786 20.7046 37.7L12.9625 29.7857C12.6862 29.5072 12.6933 29.0572 12.9625 28.7786L13.2883 28.45C14.9458 26.7786 17.6446 26.7786 19.3021 28.45L19.8404 28.9929V18.5786C19.8404 17 21.1083 15.7214 22.6737 15.7214C24.2391 15.7214 25.5071 17 25.5071 18.5786V23.7786L31.1029 25.6571C32.8383 26.2429 34.0071 27.8786 34.0071 29.7214V31.9286C34.0071 36.1643 30.8266 39.7 26.7679 39.9857C26.5837 40 26.4066 40.0072 26.2225 40.0072V40ZM14.4712 29.3L21.7104 36.7C23.0137 38.0072 24.82 38.6929 26.6687 38.5643C29.9908 38.3286 32.5833 35.4214 32.5833 31.9286V29.7214C32.5833 28.4929 31.8041 27.4 30.6425 27.0143L24.565 24.9714C24.2746 24.8714 24.0833 24.6 24.0833 24.2929V18.5786C24.0833 17.7929 23.4458 17.15 22.6666 17.15C21.8875 17.15 21.25 17.7929 21.25 18.5786V30.7214C21.25 31.0071 21.08 31.2714 20.8108 31.3786C20.5416 31.4929 20.2441 31.4286 20.0387 31.2214L18.2962 29.4643C17.2479 28.4072 15.5762 28.35 14.4641 29.3H14.4712Z" fill="#8AB61D"/>
<path id="Vector_2" d="M16.2917 17.1429H14.1667V10.7143C14.1667 10.3214 13.8479 10 13.4584 10H10.625C10.2354 10 9.91669 10.3214 9.91669 10.7143C9.91669 11.1071 10.2354 11.4286 10.625 11.4286H12.75V17.1429H10.625C10.2354 17.1429 9.91669 17.4643 9.91669 17.8571C9.91669 18.25 10.2354 18.5714 10.625 18.5714H16.2917C16.6813 18.5714 17 18.25 17 17.8571C17 17.4643 16.6813 17.1429 16.2917 17.1429ZM13.1042 8.57143C13.6921 8.57143 14.1667 8.09286 14.1667 7.5C14.1667 6.90715 13.6921 6.42857 13.1042 6.42857C12.5163 6.42857 12.0417 6.90715 12.0417 7.5C12.0417 8.09286 12.5163 8.57143 13.1042 8.57143Z" fill="#8AB61D"/>
<path id="Vector_3" d="M12.4242 27.0929C12.4242 27.0929 12.3887 27.0929 12.3675 27.0929C5.43292 26.5286 0 20.5857 0 13.5714C0 6.08571 6.035 0 13.4583 0C20.8817 0 26.9167 6.08571 26.9167 13.5714C26.9167 14.05 26.8883 14.5429 26.8317 15.0714C26.7892 15.4643 26.435 15.75 26.0525 15.7C25.6629 15.6571 25.3867 15.3 25.4292 14.9143C25.4788 14.4357 25.5071 13.9929 25.5071 13.5714C25.5071 6.87857 20.1025 1.42857 13.4654 1.42857C6.82833 1.42857 1.41667 6.87857 1.41667 13.5714C1.41667 19.85 6.27583 25.1571 12.4808 25.6643C12.8704 25.6929 13.1608 26.0429 13.1325 26.4357C13.1042 26.8071 12.7925 27.0929 12.4242 27.0929Z" fill="#8AB61D"/>
</g>
<defs>
<clipPath id="clip0_2479_6230">
<rect width="34" height="40" fill="white"/>
</clipPath>
</defs>
</svg>
