<svg width="9" height="13" viewBox="0 0 9 13" fill="none" xmlns="http://www.w3.org/2000/svg">
<g id="Icons" clip-path="url(#clip0_2486_6947)">
<path id="Vector" d="M4.5 0C2.295 0 0.5 1.795 0.5 4C0.5 5.4975 1.515 6.7475 2.4975 7.96C3.3975 9.07 4.25 10.12 4.25 11.25C4.25 11.3875 4.3625 11.5 4.5 11.5C4.6375 11.5 4.75 11.3875 4.75 11.25C4.75 10.1175 5.6 9.07 6.5025 7.96C7.485 6.75 8.5 5.4975 8.5 4C8.5 1.795 6.705 0 4.5 0ZM6.115 7.645C5.4875 8.42 4.8425 9.2125 4.5 10.0575C4.1575 9.2125 3.515 8.42 2.885 7.645C1.9575 6.5025 1 5.32 1 4C1 2.07 2.57 0.5 4.5 0.5C6.43 0.5 8 2.07 8 4C8 5.32 7.0425 6.5 6.115 7.645ZM4.5 2.5C3.6725 2.5 3 3.1725 3 4C3 4.8275 3.6725 5.5 4.5 5.5C5.3275 5.5 6 4.8275 6 4C6 3.1725 5.3275 2.5 4.5 2.5ZM4.5 5C3.9475 5 3.5 4.5525 3.5 4C3.5 3.4475 3.9475 3 4.5 3C5.0525 3 5.5 3.4475 5.5 4C5.5 4.5525 5.0525 5 4.5 5Z" fill="#8AB61D"/>
<path id="Vector_2" d="M8.75011 13H0.250111C0.162611 13 0.082611 12.955 0.037611 12.8825C-0.00738899 12.81 -0.012389 12.7175 0.027611 12.64L1.52761 9.64C1.57011 9.555 1.65761 9.5025 1.75011 9.5025H4.08261C4.22011 9.5025 4.33261 9.615 4.33261 9.7525C4.33261 9.89 4.22011 10.0025 4.08261 10.0025H1.90511L0.655111 12.5025H8.34511L7.09511 10.0025H6.07761C5.94011 10.0025 5.82761 9.89 5.82761 9.7525C5.82761 9.615 5.94011 9.5025 6.07761 9.5025H7.24761C7.34261 9.5025 7.42761 9.555 7.47011 9.64L8.97011 12.64C9.01011 12.7175 9.00511 12.81 8.96011 12.8825C8.91511 12.955 8.83511 13 8.74761 13H8.75011Z" fill="#8AB61D"/>
</g>
<defs>
<clipPath id="clip0_2486_6947">
<rect width="9" height="13" fill="white"/>
</clipPath>
</defs>
</svg>
