<svg width="12" height="8" viewBox="0 0 12 8" fill="none" xmlns="http://www.w3.org/2000/svg">
<g id="Icons" clip-path="url(#clip0_2486_6902)">
<path id="Vector" d="M10.8462 0H1.15385C0.516923 0 0 0.497778 0 1.11111V6.88889C0 7.50222 0.516923 8 1.15385 8H10.8462C11.4831 8 12 7.50222 12 6.88889V1.11111C12 0.497778 11.4831 0 10.8462 0ZM11.5385 6.88889C11.5385 7.25556 11.2269 7.55556 10.8462 7.55556H1.15385C0.773077 7.55556 0.461538 7.25556 0.461538 6.88889V1.11111C0.461538 0.744444 0.773077 0.444444 1.15385 0.444444H10.8462C11.2269 0.444444 11.5385 0.744444 11.5385 1.11111V6.88889ZM11.01 0.953333C10.92 0.866667 10.7746 0.866667 10.6846 0.953333L6.49154 4.99111C6.23077 5.24222 5.77385 5.24222 5.51308 4.99111L1.31769 0.953333C1.22769 0.866667 1.08231 0.866667 0.992308 0.953333C0.902308 1.04 0.902308 1.18 0.992308 1.26667L3.82846 3.99778L0.992308 6.72889C0.902308 6.81556 0.902308 6.95556 0.992308 7.04222C1.03846 7.08667 1.09615 7.10667 1.15615 7.10667C1.21615 7.10667 1.27385 7.08444 1.32 7.04222L4.15615 4.31111L5.18538 5.30222C5.40923 5.51778 5.70462 5.62667 6.00231 5.62667C6.3 5.62667 6.59308 5.51778 6.81923 5.30222L7.84846 4.31111L10.6846 7.04222C10.7308 7.08667 10.7885 7.10667 10.8485 7.10667C10.9085 7.10667 10.9662 7.08444 11.0123 7.04222C11.1023 6.95556 11.1023 6.81556 11.0123 6.72889L8.17615 3.99778L11.0123 1.26667C11.1023 1.18 11.1023 1.04 11.0123 0.953333H11.01Z" fill="#8AB61D"/>
</g>
<defs>
<clipPath id="clip0_2486_6902">
<rect width="12" height="8" fill="white"/>
</clipPath>
</defs>
</svg>
