<svg width="33" height="40" viewBox="0 0 33 40" fill="none" xmlns="http://www.w3.org/2000/svg">
<g id="Icons" clip-path="url(#clip0_2479_6200)">
<path id="Vector" d="M15.3955 30.7175C15.3955 30.7175 19.2959 28.5537 20.7537 26.904C22.3895 25.0565 21.3991 21.9548 19.2291 21.435C18.3055 21.209 17.4041 21.5254 16.7699 22.1921C16.3915 21.2825 15.6571 20.5706 14.7279 20.3503C12.5969 19.8362 10.8164 22.0678 11.5898 24.6271C12.3576 27.1808 15.3955 30.7175 15.3955 30.7175Z" stroke="#8AB61D" stroke-width="2" stroke-linejoin="round"/>
<path id="Vector_2" d="M5.98685 12.2825C4.9742 19.3842 3.29944 25.8814 0.556396 33.1977L26.3955 39.435C29.4947 31.2486 31.6146 22.3898 32.4436 13.6102L21.4547 10.9548" stroke="#8AB61D" stroke-width="2" stroke-linecap="round" stroke-linejoin="round"/>
<path id="Vector_3" d="M18.5169 12.5989L20.3586 14.4689" stroke="#8AB61D" stroke-width="2" stroke-linecap="round" stroke-linejoin="round"/>
<path id="Vector_4" d="M18.8897 5.50283L18.5503 5.1582C17.7324 4.32204 16.3915 4.50283 15.7517 4.68927C15.5625 4.74577 15.3733 4.80791 15.1841 4.87571L13.7987 3.46893C13.9823 2.57628 13.8154 1.85876 13.3758 1.41243C13.2924 1.32769 13.1032 1.12995 13.0364 1.0678C12.7026 0.734467 12.2297 0.559326 11.6621 0.559326C11.3839 0.559326 11.0779 0.598874 10.7608 0.68362C8.76886 1.21469 6.738 3.29379 6.20942 5.30509C5.94791 6.30509 6.10927 7.1017 6.58777 7.58757C6.70462 7.70622 6.7992 7.80791 6.92161 7.92656C7.24432 8.25424 7.7117 8.43503 8.29035 8.43503C8.49622 8.43503 8.72434 8.41243 8.95803 8.36159L10.3435 9.77402C10.2656 9.97176 10.1988 10.1751 10.1487 10.3729C9.82601 11.6045 10.0263 12.5876 10.6161 13.1808C10.7552 13.322 10.7941 13.3672 10.9444 13.5141C11.434 14.0113 12.3743 14.3616 13.7431 13.9831C16.1856 13.3051 18.695 10.774 19.3404 8.29944C19.6631 7.07345 19.4628 6.0904 18.8842 5.49718L18.8897 5.50283Z" stroke="#8AB61D" stroke-width="2" stroke-linecap="round" stroke-linejoin="round"/>
<path id="Vector_5" d="M17.393 7.17514C16.8644 9.20339 14.9003 11.2203 12.8417 11.791" stroke="#8AB61D" stroke-width="2" stroke-linecap="round" stroke-linejoin="round"/>
<path id="Vector_6" d="M12.1684 2.99435C11.6955 4.59887 10.043 6.18644 8.4183 6.55368" stroke="#8AB61D" stroke-width="2" stroke-linecap="round" stroke-linejoin="round"/>
<path id="Vector_7" d="M17.8437 16.6271C12.7749 15.8192 7.58927 18.1299 6.59332 22.2938C5.50834 26.8192 9.1305 31.6949 14.6834 33.1864C20.2362 34.678 25.6222 32.2203 26.7071 27.6949C27.7921 23.1695 23.0182 19.4463 17.5989 18.7966" stroke="#8AB61D" stroke-width="2" stroke-miterlimit="10" stroke-linecap="round"/>
</g>
<defs>
<clipPath id="clip0_2479_6200">
<rect width="33" height="40" fill="white"/>
</clipPath>
</defs>
</svg>
