<svg width="152" height="126" viewBox="0 0 152 126" fill="none" xmlns="http://www.w3.org/2000/svg">
<g clip-path="url(#clip0_2993_154)">
<path d="M131.191 62.6785C130.734 62.0491 129.984 61.6412 129.141 61.6412C127.196 61.6412 125.954 63.6808 126.985 65.5107C128.016 67.3288 131.191 69.485 131.191 69.485C131.191 69.485 134.308 67.0957 135.351 65.5573C136.523 63.8323 135.222 61.6295 133.242 61.6295C132.398 61.6295 131.66 62.0375 131.191 62.6668V62.6785Z" stroke="white" stroke-width="2" stroke-linejoin="round"/>
<path d="M140.424 77.0491V53.0515C140.424 50.7205 138.737 48.6809 136.546 48.4011C131.555 47.9349 127.149 47.7018 122.732 47.7018C118.314 47.7018 113.885 47.9349 108.847 48.4128C106.691 48.6925 105.003 50.7321 105.003 53.0631V103.774C105.003 106.105 106.691 108.145 108.882 108.424C113.873 108.902 118.642 109.124 123.446 109.124C128.25 109.124 131.016 108.995 136.042 108.518C138.292 108.18 140.741 106.653 140.741 104.45" stroke="white" stroke-width="2" stroke-miterlimit="10"/>
<path d="M147.888 88.1097C147.22 86.4663 145.721 85.6971 144.291 85.6971C143.787 85.6971 143.283 85.7903 142.838 85.9885L138.69 87.795C136.722 88.6341 135.796 90.9535 136.616 92.9814C137.284 94.6248 138.784 95.394 140.214 95.394C140.717 95.394 141.221 95.3008 141.667 95.1027L145.814 93.2961C147.783 92.457 148.709 90.1376 147.888 88.1097Z" stroke="white" stroke-width="2" stroke-miterlimit="10"/>
<path d="M141.725 104.194L145.475 102.562C147.256 101.804 148.088 99.6947 147.349 97.8765C146.74 96.3963 145.393 95.6854 144.104 95.6854C143.647 95.6854 143.201 95.7786 142.791 95.9535L139.042 97.5852C137.261 98.3544 136.429 100.441 137.167 102.27C137.776 103.762 139.124 104.462 140.413 104.462C140.87 104.462 141.315 104.368 141.725 104.205V104.194Z" stroke="white" stroke-width="2" stroke-miterlimit="10"/>
<path d="M136.64 83.0048C137.308 84.6481 138.808 85.4174 140.237 85.4174C140.741 85.4174 141.245 85.3241 141.69 85.126L144.502 83.8439C146.471 82.9931 147.396 80.6738 146.576 78.6575C145.908 77.0141 144.408 76.2332 142.979 76.2332C142.475 76.2332 141.971 76.3265 141.526 76.5246L138.714 77.8067C136.745 78.6458 135.82 80.9652 136.64 82.9931V83.0048Z" stroke="white" stroke-width="2" stroke-miterlimit="10"/>
<path d="M118.478 103.949H126.95" stroke="white" stroke-width="2" stroke-miterlimit="10" stroke-linecap="round"/>
<path d="M121.243 52.7251H124.173" stroke="white" stroke-width="2" stroke-miterlimit="10" stroke-linecap="round"/>
<path d="M105.003 99.1469H137.331" stroke="white" stroke-width="2" stroke-miterlimit="10"/>
<path d="M105.003 56.8976H140.424" stroke="white" stroke-width="2" stroke-miterlimit="10"/>
<path d="M140.424 72.6318L147.994 69.4034C150.22 68.4477 151.263 65.8253 150.337 63.541C149.576 61.6878 147.959 60.3475 145.205 61.1284C144.526 61.3265 141.315 62.4454 140.413 62.83" stroke="white" stroke-width="2" stroke-miterlimit="10"/>
<path d="M109.902 124.657C109.559 125.09 109.633 125.719 110.066 126.062C110.499 126.404 111.128 126.331 111.471 125.898L109.902 124.657ZM111.471 125.898C113.679 123.105 115.696 120.455 117.351 118.102L115.715 116.951C114.09 119.261 112.099 121.879 109.902 124.657L111.471 125.898Z" fill="white"/>
<path d="M84.067 105.335C83.6548 105.703 83.6187 106.335 83.9863 106.747C84.3539 107.159 84.986 107.196 85.3982 106.828L84.067 105.335ZM85.3982 106.828C88.575 103.995 91.3072 101.343 92.8678 99.3423L91.2907 98.1124C89.8517 99.9575 87.2409 102.504 84.067 105.335L85.3982 106.828Z" fill="white"/>
<path d="M127.957 112.177C122.017 118.867 115.982 117.83 112.877 116.664" stroke="white" stroke-width="2" stroke-linecap="round" stroke-linejoin="round"/>
<path d="M105.003 62.6901C103.972 57.2589 96.8365 57.2589 95.1843 58.2263C93.2979 59.3452 98.4534 69.5549 93.6142 81.7577C91.2239 87.7833 88.6227 96.5012 94.0829 101.42" stroke="white" stroke-width="2" stroke-linecap="round" stroke-linejoin="round"/>
<path d="M120.986 77.3889H110.182" stroke="white" stroke-width="2" stroke-linecap="round" stroke-linejoin="round"/>
<path d="M129.658 84.3333H110.182" stroke="white" stroke-width="2" stroke-linecap="round" stroke-linejoin="round"/>
<path d="M125.625 91.2778H110.182" stroke="white" stroke-width="2" stroke-linecap="round" stroke-linejoin="round"/>
</g>
<path d="M7.55864 63.5H76.6173" stroke="white" stroke-width="2" stroke-linecap="round"/>
<path d="M7.55864 73.5309H48.4537" stroke="white" stroke-width="2" stroke-linecap="round"/>
<path d="M7.55864 53.4691H36.108" stroke="white" stroke-width="2" stroke-linecap="round"/>
<path d="M116.741 41.1235V4.85802C116.741 3.57202 115.969 1 112.883 1C109.796 1 39.5802 1 4.85802 1C3.57202 1 1 1.7716 1 4.85802C1 7.94444 1 55.784 1 79.3179V79.7037C1 80.9897 1.7716 83.5617 4.85802 83.5617C7.94444 83.5617 59.642 83.5617 85.1049 83.5617" stroke="white" stroke-width="2" stroke-linecap="round"/>
<path d="M66.9722 83.5617L68.5154 95.1358" stroke="white" stroke-width="2"/>
<path d="M46.9105 95.1358H71.6019" stroke="white" stroke-width="2" stroke-linecap="round"/>
<path d="M51.5401 83.5617L49.9969 95.1358" stroke="white" stroke-width="2"/>
<defs>
<clipPath id="clip0_2993_154">
<rect width="67.9012" height="79.4753" fill="white" transform="translate(83.9475 46.5247)"/>
</clipPath>
</defs>
</svg>
