<svg width="190" height="110" viewBox="0 0 190 110" fill="none" xmlns="http://www.w3.org/2000/svg">
<path d="M138.07 55.3559C137.712 54.8625 137.124 54.5427 136.462 54.5427C134.937 54.5427 133.964 56.1418 134.772 57.5763C135.581 59.0018 138.07 60.6922 138.07 60.6922C138.07 60.6922 140.514 58.819 141.331 57.6129C142.25 56.2605 141.23 54.5336 139.678 54.5336C139.016 54.5336 138.437 54.8534 138.07 55.3468V55.3559Z" stroke="white" stroke-width="2" stroke-linejoin="round"/>
<path d="M145.309 66.6225V47.8084C145.309 45.9809 143.986 44.3818 142.268 44.1625C138.355 43.797 134.901 43.6142 131.437 43.6142C127.974 43.6142 124.502 43.797 120.552 44.1716C118.861 44.3909 117.539 45.99 117.539 47.8175V87.5748C117.539 89.4023 118.861 91.0013 120.579 91.2206C124.493 91.5953 128.231 91.7689 131.998 91.7689C135.764 91.7689 137.932 91.6684 141.873 91.2937C143.637 91.0288 145.557 89.8317 145.557 88.1048" stroke="white" stroke-width="2" stroke-miterlimit="10"/>
<path d="M151.16 75.294C150.637 74.0056 149.461 73.4025 148.34 73.4025C147.945 73.4025 147.55 73.4756 147.201 73.6309L143.949 75.0473C142.406 75.7052 141.68 77.5235 142.323 79.1135C142.847 80.4018 144.023 81.0049 145.143 81.0049C145.538 81.0049 145.933 80.9318 146.283 80.7765L149.535 79.3602C151.078 78.7023 151.804 76.8839 151.16 75.294Z" stroke="white" stroke-width="2" stroke-miterlimit="10"/>
<path d="M146.328 87.9037L149.268 86.6245C150.664 86.0305 151.317 84.3766 150.738 82.9512C150.26 81.7907 149.204 81.2333 148.193 81.2333C147.835 81.2333 147.486 81.3064 147.164 81.4435L144.225 82.7228C142.829 83.3258 142.176 84.9614 142.755 86.396C143.233 87.5656 144.289 88.1139 145.3 88.1139C145.658 88.1139 146.007 88.0408 146.328 87.9129V87.9037Z" stroke="white" stroke-width="2" stroke-miterlimit="10"/>
<path d="M142.342 71.2917C142.865 72.5801 144.041 73.1832 145.162 73.1832C145.557 73.1832 145.952 73.1101 146.301 72.9548L148.506 71.9496C150.049 71.2826 150.775 69.4642 150.132 67.8834C149.608 66.5951 148.432 65.9828 147.311 65.9828C146.916 65.9828 146.521 66.0559 146.172 66.2113L143.968 67.2164C142.424 67.8743 141.699 69.6927 142.342 71.2826V71.2917Z" stroke="white" stroke-width="2" stroke-miterlimit="10"/>
<path d="M128.103 87.7118H134.745" stroke="white" stroke-width="2" stroke-miterlimit="10" stroke-linecap="round"/>
<path d="M130.271 47.5525H132.567" stroke="white" stroke-width="2" stroke-miterlimit="10" stroke-linecap="round"/>
<path d="M117.539 83.9472H142.884" stroke="white" stroke-width="2" stroke-miterlimit="10"/>
<path d="M117.539 50.8237H145.309" stroke="white" stroke-width="2" stroke-miterlimit="10"/>
<path d="M145.309 63.1594L151.243 60.6283C152.989 59.879 153.806 57.8231 153.08 56.0321C152.483 54.5792 151.216 53.5284 149.057 54.1406C148.524 54.296 146.007 55.1732 145.3 55.4747" stroke="white" stroke-width="2" stroke-miterlimit="10"/>
<path d="M121.21 103.813C120.867 104.246 120.941 104.875 121.374 105.218C121.807 105.56 122.436 105.487 122.778 105.054L121.21 103.813ZM122.778 105.054C124.511 102.862 126.095 100.781 127.396 98.9325L125.76 97.7815C124.489 99.5878 122.931 101.637 121.21 103.813L122.778 105.054Z" fill="white"/>
<path d="M100.981 88.6377C100.569 89.0053 100.532 89.6375 100.9 90.0496C101.268 90.4618 101.9 90.4979 102.312 90.1303L100.981 88.6377ZM102.312 90.1303C104.803 87.9086 106.958 85.8188 108.195 84.2332L106.618 83.0032C105.503 84.433 103.469 86.4185 100.981 88.6377L102.312 90.1303Z" fill="white"/>
<path d="M135.535 94.1629C130.877 99.4078 126.146 98.5946 123.712 97.6809" stroke="white" stroke-width="2" stroke-linecap="round" stroke-linejoin="round"/>
<path d="M117.539 55.3651C116.73 51.107 111.136 51.107 109.841 51.8654C108.362 52.7426 112.404 60.7471 108.61 70.314C106.736 75.0381 104.696 81.873 108.977 85.729" stroke="white" stroke-width="2" stroke-linecap="round" stroke-linejoin="round"/>
<path d="M130.069 66.8889H121.599" stroke="white" stroke-width="2" stroke-linecap="round" stroke-linejoin="round"/>
<path d="M136.868 72.3333H121.599" stroke="white" stroke-width="2" stroke-linecap="round" stroke-linejoin="round"/>
<path d="M133.706 77.7778H121.599" stroke="white" stroke-width="2" stroke-linecap="round" stroke-linejoin="round"/>
<path d="M41.142 56H95.284" stroke="white" stroke-width="2" stroke-linecap="round"/>
<path d="M41.142 63.8642H73.2037" stroke="white" stroke-width="2" stroke-linecap="round"/>
<path d="M41.142 48.1358H63.5247" stroke="white" stroke-width="2" stroke-linecap="round"/>
<path d="M126.741 38.4568V10.0247C126.741 9.01646 126.136 7 123.716 7C121.296 7 66.2469 7 39.0247 7C38.0165 7 36 7.60494 36 10.0247C36 12.4444 36 49.9506 36 68.4012V68.7037C36 69.7119 36.6049 71.7284 39.0247 71.7284C41.4444 71.7284 81.9753 71.7284 101.938 71.7284" stroke="white" stroke-width="2" stroke-linecap="round"/>
<path d="M87.7222 71.7284L88.9321 80.8025" stroke="white" stroke-width="2"/>
<path d="M71.9938 80.8025H91.3519" stroke="white" stroke-width="2" stroke-linecap="round"/>
<path d="M75.6235 71.7284L74.4136 80.8025" stroke="white" stroke-width="2"/>
</svg>
