<svg width="12" height="12" viewBox="0 0 12 12" fill="none" xmlns="http://www.w3.org/2000/svg">
<g id="Icons" clip-path="url(#clip0_2486_6899)">
<path id="Vector" d="M6.25 0C6.1125 0 6 0.1125 6 0.25C6 0.3875 6.1125 0.5 6.25 0.5C9.145 0.5 11.5 2.855 11.5 5.75C11.5 5.8875 11.6125 6 11.75 6C11.8875 6 12 5.8875 12 5.75C12 2.58 9.42 0 6.25 0ZM6.25 1.5C6.1125 1.5 6 1.6125 6 1.75C6 1.8875 6.1125 2 6.25 2C8.3175 2 10 3.6825 10 5.75C10 5.8875 10.1125 6 10.25 6C10.3875 6 10.5 5.8875 10.5 5.75C10.5 3.4075 8.5925 1.5 6.25 1.5ZM6.25 3C6.1125 3 6 3.1125 6 3.25C6 3.3875 6.1125 3.5 6.25 3.5C7.49 3.5 8.5 4.51 8.5 5.75C8.5 5.8875 8.6125 6 8.75 6C8.8875 6 9 5.8875 9 5.75C9 4.2325 7.7675 3 6.25 3Z" fill="#8AB61D"/>
<path id="Vector_2" d="M8.60244 12C6.97244 12 4.82744 10.94 2.94494 9.055C0.209943 6.32 -0.790057 3.0375 0.669943 1.5775C0.967443 1.28 1.46994 0.905001 1.83994 0.642501C2.01744 0.517501 2.22994 0.472501 2.44244 0.512501C2.65244 0.555001 2.83744 0.682501 2.95244 0.862501L4.54744 3.3925C4.65994 3.5725 4.69494 3.785 4.64744 3.99C4.59744 4.1975 4.46994 4.37 4.28994 4.48L3.35494 5.04C3.28494 5.0825 3.23744 5.1475 3.22244 5.2275C3.20744 5.3025 3.22244 5.38 3.26744 5.4425C3.64744 5.98 4.16244 6.575 4.79244 7.205C5.42494 7.8375 6.01744 8.35 6.55494 8.73C6.61744 8.775 6.69494 8.79 6.76994 8.775C6.84994 8.7575 6.91494 8.71 6.95744 8.6425L7.51744 7.7075C7.62744 7.525 7.79994 7.3975 8.00744 7.35C8.21244 7.3 8.42744 7.335 8.60494 7.45L11.1349 9.045C11.3149 9.16 11.4424 9.345 11.4849 9.555C11.5274 9.7675 11.4824 9.9825 11.3549 10.1575C11.0924 10.5275 10.7174 11.0325 10.4199 11.3275C9.96744 11.78 9.33744 11.9975 8.60244 11.9975V12ZM2.28994 1C2.23244 1 2.17744 1.0175 2.12744 1.0525C1.77244 1.305 1.29244 1.66 1.01994 1.9325C-0.197557 3.15 0.842443 6.2525 3.29494 8.7025C5.74744 11.155 8.84744 12.195 10.0649 10.9775C10.3374 10.705 10.6924 10.225 10.9449 9.87C10.9899 9.8075 11.0074 9.73 10.9924 9.6525C10.9774 9.575 10.9324 9.51 10.8649 9.47L8.33494 7.875C8.26994 7.835 8.19494 7.8225 8.11994 7.84C8.04494 7.8575 7.98244 7.905 7.94244 7.97L7.38244 8.905C7.26994 9.0925 7.08244 9.225 6.86994 9.27C6.65994 9.315 6.43744 9.27 6.26244 9.145C5.69244 8.7425 5.09494 8.225 4.43494 7.565C3.77494 6.905 3.25744 6.305 2.85494 5.7375C2.73244 5.5625 2.68494 5.3425 2.72994 5.13C2.77494 4.9175 2.90744 4.73 3.09494 4.6175L4.02994 4.0575C4.09494 4.0175 4.14244 3.955 4.15994 3.88C4.17744 3.805 4.16494 3.73 4.12494 3.665L2.52994 1.135C2.48744 1.07 2.42244 1.025 2.34744 1.0075C2.32994 1.005 2.30994 1.0025 2.29244 1.0025L2.28994 1Z" fill="#8AB61D"/>
</g>
<defs>
<clipPath id="clip0_2486_6899">
<rect width="12" height="12" fill="white"/>
</clipPath>
</defs>
</svg>
