<svg width="343" height="125" viewBox="0 0 343 125" fill="none" xmlns="http://www.w3.org/2000/svg">
<rect width="343" height="125" rx="20" fill="url(#paint0_linear_21_15581)"/>
<circle opacity="0.2" cx="65.5" cy="61.5" r="48.5" fill="#A5540A"/>
<path d="M79.5007 70.819C72.1217 70.5014 65.8887 76.2103 65.5721 83.5653C65.2555 90.9202 70.9801 97.1439 78.3538 97.4613C85.7328 97.7789 91.9659 92.07 92.2825 84.715C92.5991 77.3601 86.8745 71.1364 79.5007 70.819ZM82.9118 80.4189C83.7566 80.4553 84.4104 81.1661 84.3741 82.0087C84.3379 82.8514 83.6254 83.5034 82.7806 83.467C81.9358 83.4307 81.282 82.7199 81.3182 81.8772C81.3545 81.0346 82.067 80.3826 82.9118 80.4189ZM75.2721 80.0901C76.1169 80.1264 76.7707 80.8372 76.7344 81.6799C76.6981 82.5225 75.9856 83.1745 75.1408 83.1382C74.296 83.1018 73.6422 82.391 73.6785 81.5483C73.7148 80.7057 74.4273 80.0537 75.2721 80.0901ZM87.3146 89.6759L70.1891 88.9387C69.725 88.9187 69.3709 88.5283 69.3906 88.0705C69.4105 87.6076 69.8019 87.2545 70.2608 87.2742L87.3863 88.0114C87.8504 88.0314 88.2045 88.4218 88.1848 88.8796C88.1703 89.3375 87.7787 89.6959 87.3146 89.6759Z" fill="white"/>
<path d="M94.1353 18.2243C80.8924 14.925 67.4994 22.9603 64.2109 36.1601C60.9223 49.3599 68.9895 62.7417 82.223 66.0386C95.4566 69.3356 108.859 61.3026 112.147 48.1028C115.436 34.903 107.369 21.5212 94.1353 18.2243ZM96.7766 36.8672C98.2927 37.245 99.2141 38.7733 98.8373 40.2856C98.4606 41.7979 96.9299 42.7153 95.4137 42.3376C93.8976 41.9599 92.9762 40.4315 93.353 38.9192C93.7297 37.407 95.2604 36.4895 96.7766 36.8672ZM83.0563 33.449C84.5725 33.8268 85.4939 35.3551 85.1171 36.8674C84.7403 38.3797 83.2096 39.2971 81.6935 38.9194C80.1773 38.5417 79.256 37.0133 79.6327 35.501C80.0095 33.9888 81.5402 33.0713 83.0563 33.449ZM103.479 50.94C97.3952 54.2131 91.217 55.0732 85.5455 53.6602C79.8927 52.2519 74.7442 48.5799 70.7365 42.8026C70.2443 42.1049 70.4254 41.1388 71.1217 40.6579C71.8204 40.1677 72.7889 40.3495 73.2717 41.0448C80.3332 51.2017 91.3464 53.9554 101.999 48.2217C102.756 47.8154 103.69 48.0976 104.1 48.8443C104.508 49.6003 104.227 50.5315 103.479 50.94Z" fill="white"/>
<path d="M44.5583 32.3417C38.7832 31.2073 33.1808 34.9597 32.0493 40.7201C30.9178 46.4804 34.6845 52.0732 40.4596 53.2076C46.2387 54.3428 51.837 50.5896 52.9685 44.8292C54.1 39.0689 50.3374 33.4769 44.5583 32.3417ZM47.299 40.4154C47.6696 40.429 47.9962 40.6666 48.0128 40.9491C48.0285 41.2145 47.7592 41.4197 47.4008 41.4085C46.7306 41.3869 46.303 41.4044 46.0313 41.4272C46.3396 41.5851 46.8948 41.8253 47.8682 42.1604C48.1779 42.2678 48.392 42.5171 48.3374 42.7518C48.2756 43.0231 47.9341 43.1634 47.5911 43.096C47.5502 43.088 47.5143 43.0767 47.4742 43.0646C45.1327 42.2661 44.2645 41.719 44.3805 41.1072C44.4885 40.5572 45.3178 40.352 47.299 40.4154ZM38.1723 40.2558C39.2001 40.3138 39.8049 40.3015 40.15 40.272C39.9071 40.1481 39.5179 39.9701 38.8893 39.7366C38.5534 39.6114 38.3776 39.3188 38.4966 39.0798C38.6181 38.8287 39.0111 38.7282 39.3593 38.8558C41.2172 39.5466 41.9114 40.051 41.7993 40.6001C41.6759 41.2063 40.6646 41.3885 38.1949 41.2418C38.1533 41.2379 38.1117 41.2339 38.0749 41.2267C37.7277 41.1585 37.4647 40.8995 37.5143 40.6258C37.5574 40.3846 37.8457 40.234 38.1723 40.2558ZM48.8755 48.4339C48.716 48.5549 48.5211 48.597 48.3373 48.5609C48.1821 48.5304 48.0414 48.4478 47.9364 48.3129C44.6729 44.0882 39.8666 43.1399 35.3995 45.8418C35.082 46.0333 34.6735 45.9319 34.4812 45.6149C34.2882 45.302 34.3902 44.8904 34.7078 44.699C39.8052 41.6174 45.2829 42.6891 48.9959 47.4971C49.2223 47.7912 49.1652 48.2116 48.8755 48.4339Z" fill="white"/>
<path d="M31.9017 64.0599C22.5632 66.8558 17.2605 76.6706 20.0473 85.9787C22.834 95.2868 32.6644 100.571 41.9963 97.7771C51.3282 94.9832 56.6374 85.1664 53.8507 75.8583C51.0639 66.5502 41.2402 61.2641 31.9017 64.0599ZM38.215 78.3015C38.4496 75.8427 39.2319 74.3963 40.5433 73.9965C40.5499 73.9946 40.5565 73.9926 40.5565 73.9926C41.8698 73.5994 43.338 74.372 44.9163 76.2809C45.3023 76.7535 45.2367 77.4474 44.7626 77.8332C44.2884 78.219 43.5932 78.1546 43.2072 77.682C42.0235 76.2504 41.3323 76.0556 41.1805 76.101C41.0353 76.1445 40.5847 76.6811 40.4116 78.5046C40.3688 78.9622 40.0477 79.3309 39.6253 79.4573C39.4933 79.4968 39.3534 79.51 39.2057 79.4969C38.5995 79.4417 38.1588 78.9065 38.215 78.3015ZM27.7413 81.4372C27.976 78.9784 28.7583 77.532 30.0696 77.1322C30.0762 77.1303 30.0828 77.1283 30.0828 77.1283C31.3962 76.7351 32.8644 77.5077 34.4426 79.4166C34.8286 79.8892 34.7631 80.5831 34.2889 80.9689C33.8148 81.3547 33.1195 81.2903 32.7335 80.8177C31.5498 79.3861 30.8587 79.1913 30.7069 79.2368C30.5617 79.2802 30.1111 79.8168 29.9379 81.6403C29.8951 82.0979 29.574 82.4666 29.1517 82.593C29.0197 82.6326 28.8798 82.6457 28.732 82.6326C28.1324 82.5754 27.6852 82.0422 27.7413 81.4372ZM49.4916 80.7785C46.9457 85.0052 43.4629 87.7837 39.4635 88.9811C35.4773 90.1745 30.9766 89.7934 26.41 87.7032C25.8535 87.4538 25.6129 86.7942 25.8656 86.2451C26.1164 85.6895 26.7777 85.4485 27.3276 85.6999C35.3655 89.3688 43.1353 87.0498 47.5924 79.6471C47.9098 79.1217 48.5862 78.9551 49.1103 79.2644C49.6363 79.5803 49.809 80.2531 49.4916 80.7785Z" fill="white"/>
<defs>
<linearGradient id="paint0_linear_21_15581" x1="83.6441" y1="73.0061" x2="258" y2="98" gradientUnits="userSpaceOnUse">
<stop stop-color="#FEE02D"/>
<stop offset="1" stop-color="#D3A604"/>
</linearGradient>
</defs>
</svg>
