<svg width="49" height="40" viewBox="0 0 49 40" fill="none" xmlns="http://www.w3.org/2000/svg">
<g id="Icons" clip-path="url(#clip0_2479_6181)">
<path id="Vector" d="M38.5434 30.2644C38.5434 30.2644 33.0416 26.9042 33.0416 23.934C33.0416 22.2764 34.4018 20.9263 36.0889 20.9263C37.0996 20.9263 37.9887 21.4138 38.5434 22.1639C39.0982 21.4138 39.9873 20.9263 40.998 20.9263C42.6774 20.9263 44.0377 22.2689 44.0377 23.934C44.0377 26.7392 38.5358 30.2644 38.5358 30.2644H38.5434Z" stroke="#8AB61D" stroke-width="2" stroke-linejoin="round"/>
<path id="Vector_2" d="M26.8862 21.8264L33.4747 15.3235" stroke="#8AB61D" stroke-width="2" stroke-miterlimit="10" stroke-linecap="round"/>
<path id="Vector_3" d="M20.2444 28.3818L22.1214 26.5367" stroke="#8AB61D" stroke-width="2" stroke-miterlimit="10" stroke-linecap="round"/>
<path id="Vector_4" d="M27.8741 24.1815C27.8741 26.0266 26.3618 27.5117 24.5 27.5117C22.6382 27.5117 21.1259 26.0191 21.1259 24.1815C21.1259 22.3439 22.6382 20.8513 24.5 20.8513C26.3618 20.8513 27.8741 22.3439 27.8741 24.1815Z" stroke="#8AB61D" stroke-width="2" stroke-miterlimit="10" stroke-linecap="round"/>
<path id="Vector_5" d="M8.92154 39.25H39.7213" stroke="#8AB61D" stroke-width="2" stroke-linecap="round" stroke-linejoin="round"/>
<path id="Vector_6" d="M42.685 39.25C46.1503 35.1772 48.2401 29.9269 48.2401 24.189C48.2401 11.2432 37.6163 0.757545 24.5 0.757545C11.3837 0.757545 0.759918 11.2432 0.759918 24.1815C0.759918 29.9194 2.84971 35.1697 6.31497 39.2425" stroke="#8AB61D" stroke-width="2" stroke-linecap="round" stroke-linejoin="round"/>
<path id="Vector_7" d="M10.3806 34.1646C8.33639 31.352 7.13571 27.9092 7.13571 24.1815C7.13571 14.7159 14.9098 7.04294 24.5 7.04294C29.2191 7.04294 33.4899 8.89555 36.6208 11.9107" stroke="#8AB61D" stroke-width="2" stroke-miterlimit="10" stroke-linecap="round"/>
<path id="Vector_8" d="M25.8831 12.3308C27.8209 12.6833 29.5687 13.5759 30.967 14.8284" stroke="#8AB61D" stroke-width="2" stroke-miterlimit="10" stroke-linecap="round"/>
<path id="Vector_9" d="M26.4986 16.531C27.1369 16.7561 27.7373 17.0936 28.2768 17.5061" stroke="#8AB61D" stroke-width="2" stroke-miterlimit="10" stroke-linecap="round"/>
</g>
<defs>
<clipPath id="clip0_2479_6181">
<rect width="49" height="40" fill="white"/>
</clipPath>
</defs>
</svg>
