<svg width="41" height="40" viewBox="0 0 41 40" fill="none" xmlns="http://www.w3.org/2000/svg">
<g id="Icons" clip-path="url(#clip0_2479_6211)">
<path id="Vector" d="M0.702179 40V25.4743C0.702179 25.4743 0.308961 17.9629 8.40504 17.9629C10.0762 17.9629 13.573 18.6559 15.2583 19.062C17.7861 19.664 20.7914 20.476 24.3304 20.476C27.0127 20.476 29.9618 19.916 33.3112 18.6419C34.7296 18.1029 36.4148 18.6279 37.1029 20.434C37.8192 22.3031 36.2603 23.6752 34.849 24.4662C30.1584 27.3084 24.6534 27.9384 20.665 27.9384C17.8142 27.9384 15.7357 27.6164 15.2723 27.5534V40" stroke="#8AB61D" stroke-width="2" stroke-linejoin="round"/>
<path id="Vector_2" d="M20.6299 10.4305C20.6299 14.2177 23.7054 17.2839 27.5042 17.2839C31.3029 17.2839 34.3785 14.2177 34.3785 10.4305C34.3785 6.64333 31.3029 3.57718 27.5042 3.57718C23.7054 3.57718 20.6299 6.64333 20.6299 10.4305Z" stroke="#8AB61D" stroke-width="2" stroke-linejoin="round"/>
<path id="Vector_3" d="M2.77362 8.0434C2.77362 12.0966 6.07384 15.3868 10.1394 15.3868C14.205 15.3868 17.5053 12.0966 17.5053 8.0434C17.5053 3.9902 14.205 0.700035 10.1394 0.700035C6.07384 0.700035 2.77362 3.9832 2.77362 8.0434Z" stroke="#8AB61D" stroke-width="2" stroke-linejoin="round"/>
<path id="Vector_4" d="M25.3696 27.6304V40" stroke="#8AB61D" stroke-width="2" stroke-linejoin="round"/>
<path id="Vector_5" d="M37.2925 20.567C39.1322 21.0991 40.3049 23.1922 40.3049 25.1733V40.007" stroke="#8AB61D" stroke-width="2" stroke-linejoin="round"/>
<path id="Vector_6" d="M29.3158 29.7655V40" stroke="#8AB61D" stroke-width="2" stroke-linejoin="round"/>
<path id="Vector_7" d="M35.9724 29.7655V40" stroke="#8AB61D" stroke-width="2" stroke-linejoin="round"/>
</g>
<defs>
<clipPath id="clip0_2479_6211">
<rect width="41" height="40" fill="white"/>
</clipPath>
</defs>
</svg>
