<svg width="42" height="42" viewBox="0 0 42 42" fill="none" xmlns="http://www.w3.org/2000/svg">
<path fill-rule="evenodd" clip-rule="evenodd" d="M20.9903 38.7009C11.2099 38.7009 3.28125 30.7723 3.28125 20.9918C3.28125 11.2113 11.2099 3.28271 20.9903 3.28271C30.7708 3.28271 38.6994 11.2113 38.6994 20.9918C38.6994 30.7723 30.7708 38.7009 20.9903 38.7009Z" fill="url(#paint0_linear_21_17241)"/>
<path fill-rule="evenodd" clip-rule="evenodd" d="M20.265 18.403C20.265 20.4621 18.5959 22.1313 16.5368 22.1313C14.4778 22.1313 12.8086 20.4621 12.8086 18.403C12.8086 16.344 14.4778 14.6748 16.5368 14.6748C18.5959 14.6748 20.265 16.344 20.265 18.403Z" fill="white"/>
<path fill-rule="evenodd" clip-rule="evenodd" d="M29.1713 18.403C29.1713 20.4621 27.5021 22.1313 25.4431 22.1313C23.384 22.1313 21.7148 20.4621 21.7148 18.403C21.7148 16.344 23.384 14.6748 25.4431 14.6748C27.5021 14.6748 29.1713 16.344 29.1713 18.403Z" fill="white"/>
<path fill-rule="evenodd" clip-rule="evenodd" d="M18.1937 18.2995C18.1937 19.1575 17.4982 19.8529 16.6403 19.8529C15.7824 19.8529 15.0869 19.1575 15.0869 18.2995C15.0869 17.4416 15.7824 16.7461 16.6403 16.7461C17.4982 16.7461 18.1937 17.4416 18.1937 18.2995Z" fill="#253368"/>
<path fill-rule="evenodd" clip-rule="evenodd" d="M26.893 18.2995C26.893 19.1575 26.1975 19.8529 25.3396 19.8529C24.4816 19.8529 23.7861 19.1575 23.7861 18.2995C23.7861 17.4416 24.4816 16.7461 25.3396 16.7461C26.1975 16.7461 26.893 17.4416 26.893 18.2995Z" fill="#253368"/>
<path fill-rule="evenodd" clip-rule="evenodd" d="M14.6716 25.3748C14.5188 25.0675 14.644 24.6946 14.9512 24.5418C15.2585 24.3888 15.6314 24.5141 15.7843 24.8214C16.661 26.5842 18.7047 27.7232 20.9907 27.7232C23.2768 27.7232 25.3204 26.5842 26.1971 24.8214C26.35 24.5141 26.7228 24.3889 27.0303 24.5418C27.3375 24.6946 27.4627 25.0676 27.3099 25.3748C26.2249 27.5563 23.7445 28.966 20.9907 28.966C18.2369 28.966 15.7565 27.5563 14.6716 25.3748Z" fill="white"/>
<defs>
<linearGradient id="paint0_linear_21_17241" x1="38.5977" y1="20.9918" x2="3.28125" y2="20.9918" gradientUnits="userSpaceOnUse">
<stop stop-color="#017DC2"/>
<stop offset="1" stop-color="#015281"/>
</linearGradient>
</defs>
</svg>
