<svg width="16" height="16" viewBox="0 0 16 16" fill="none" xmlns="http://www.w3.org/2000/svg">
    <path
        d="M14.4613 9.53813C14.3813 9.53813 14.3044 9.50736 14.2429 9.4489L7.99979 3.20275L1.75672 9.4489C1.63672 9.5689 1.44287 9.5689 1.32287 9.4489L0.0890234 8.21813C-0.0309766 8.09813 -0.0309766 7.90429 0.0890234 7.78429L7.78133 0.0889014C7.90133 -0.0310986 8.09518 -0.0310986 8.21518 0.0889014L11.0736 2.94736V1.53506C11.0736 1.36582 11.2121 1.22736 11.3813 1.22736H13.2275C13.3967 1.22736 13.5352 1.36582 13.5352 1.53506V5.4089L15.9075 7.78121C16.0275 7.90121 16.0275 8.09506 15.9075 8.21506L14.6767 9.44582C14.6152 9.50736 14.5383 9.53506 14.4583 9.53506L14.4613 9.53813ZM7.99979 2.46121C8.07979 2.46121 8.15672 2.49198 8.21825 2.55044L14.4613 8.79352L15.2583 7.99659L13.0152 5.75352C12.9567 5.69506 12.9259 5.61813 12.9259 5.53506V1.84582H11.6952V3.69198C11.6952 3.81505 11.6213 3.9289 11.5044 3.97505C11.3875 4.02121 11.2583 3.99659 11.169 3.90736L7.99979 0.741209L0.741331 7.99967L1.53825 8.79659L7.78133 2.55044C7.84287 2.4889 7.91979 2.46121 7.99979 2.46121Z"
        fill="#636362" />
    <path
        d="M13.5385 8.61536V15.0769C13.5385 15.2461 13.4 15.3846 13.2308 15.3846H10.4616V9.53843C10.4616 9.3692 10.3231 9.23074 10.1539 9.23074H5.84619C5.67696 9.23074 5.5385 9.3692 5.5385 9.53843V15.3846H2.76927C2.60004 15.3846 2.46158 15.2461 2.46158 15.0769V8.61536H1.84619V15.0769C1.84619 15.5846 2.26158 16 2.76927 16H13.2308C13.7385 16 14.1539 15.5846 14.1539 15.0769V8.61536H13.5385ZM6.15388 9.84613H9.84619V15.3846H6.15388V9.84613Z"
        fill="#636362" />
    <path
        d="M10.1538 7.99998H5.84615C5.72308 7.99998 5.60923 7.92613 5.56308 7.80921C5.51692 7.69536 5.54154 7.56306 5.63077 7.47383L7.78462 5.31998C7.90462 5.19998 8.09846 5.19998 8.21846 5.31998L10.3723 7.47383C10.4615 7.56306 10.4862 7.69536 10.44 7.80921C10.3938 7.92306 10.28 7.99998 10.1569 7.99998H10.1538ZM6.58769 7.3846H9.40923L7.99692 5.97229L6.58461 7.3846H6.58769Z"
        fill="#636362" />
</svg>