<svg width="48" height="48" viewBox="0 0 48 48" fill="none" xmlns="http://www.w3.org/2000/svg">
<g clip-path="url(#clip0_3645_721)">
<path d="M43.3845 28.6152C43.1445 28.6152 42.9137 28.5229 42.7291 28.3475L23.9999 9.60904L5.27064 28.3475C4.91064 28.7075 4.3291 28.7075 3.9691 28.3475L0.267559 24.6552C-0.0924414 24.2952 -0.0924414 23.7137 0.267559 23.3537L23.3445 0.267498C23.7045 -0.0925024 24.286 -0.0925024 24.646 0.267498L33.2214 8.84288V4.60596C33.2214 4.09827 33.6368 3.68288 34.1445 3.68288H39.6829C40.1906 3.68288 40.606 4.09827 40.606 4.60596V16.2275L47.7229 23.3444C48.0829 23.7044 48.0829 24.286 47.7229 24.646L44.0306 28.3383C43.846 28.5229 43.6153 28.606 43.3753 28.606L43.3845 28.6152ZM23.9999 7.38442C24.2399 7.38442 24.4706 7.47673 24.6553 7.65211L43.3845 26.3813L45.7753 23.9906L39.046 17.2613C38.8706 17.086 38.7783 16.8552 38.7783 16.606V5.53827H35.086V11.0767C35.086 11.446 34.8645 11.7875 34.5137 11.926C34.1629 12.0644 33.7752 11.9906 33.5076 11.7229L23.9999 2.22442L2.22448 23.9998L4.61525 26.3906L23.3445 7.65211C23.5291 7.4675 23.7599 7.38442 23.9999 7.38442Z" fill="#8AB61D"/>
<path fill-rule="evenodd" clip-rule="evenodd" d="M6.46143 45.2308V25.8462L23.9999 8.30769L41.5383 25.8462V45.2308C41.5383 46.7077 40.3076 47.0769 39.6922 47.0769H31.9V47.0633V47.0272V46.9909V46.9546V46.9181V46.8816V46.845V46.8082V46.7714V46.7345V46.6975V46.6604V46.6232V46.5859V46.5485V46.511V46.4735V46.4358V46.3981V46.3603V46.3223V46.2844V46.2463V46.2081V46.1699V46.1315V46.0931V46.0546V46.016V45.9774V45.9386V45.8998V45.8609V45.8219V45.7829V45.7437V45.7045V45.6652V45.6259V45.5864V45.5469V45.5073V45.4677V45.428V45.3882V45.3483V45.3083V45.2683V45.2282V45.1881V45.1479V45.1076V45.0672V45.0268V44.9863V44.9458V44.9052V44.8645V44.8238V44.783V44.7421V44.7012V44.6602V44.6192V44.5781V44.5369V44.4957V44.4544V44.4131V44.3717V44.3303V44.2888V44.2473V44.2057V44.164V44.1223V44.0805V44.0387V43.9969V43.955V43.913V43.871V43.829V43.7869V43.7447V43.7025V43.6603V43.618V43.5757V43.5334V43.4909V43.4485V43.406V43.3635V43.3209V43.2783V43.2357V43.193V43.1503V43.1075V43.0647V43.0219V42.979V42.9361V42.8932V42.8502V42.8072V42.7642V42.7211V42.678V42.6349V42.5918V42.5486V42.5054V42.4622V42.4189V42.3756V42.3323V42.289V42.2456V42.2022V42.1588V42.1154V42.072V42.0285V41.985V41.9415V41.898V41.8544V41.8109V41.7673V41.7237V41.6801V41.6365V41.5928V41.5492V41.5055V41.4618V41.4181V41.3744V41.3307V41.287V41.2433V41.1995V41.1558V41.112V41.0683V41.0245V40.9807V40.9369V40.8932V40.8494V40.8056V40.7618V40.718V40.6742V40.6304V40.5866V40.5428V40.499V40.4552V40.4114V40.3677V40.3239V40.2801V40.2363V40.1926V40.1488V40.1051V40.0613V40.0176V39.9738V39.9301V39.8864V39.8427V39.799V39.7554V39.7117V39.6681V39.6244V39.5808V39.5372V39.4936V39.4501V39.4065V39.363V39.3195V39.276V39.2325V39.1891V39.1456V39.1022V39.0588V39.0155V38.9721V38.9288V38.8855V38.8422V38.799V38.7558V38.7126V38.6694V38.6263V38.5832V38.5401V38.4971V38.4541V38.4111V38.3682V38.3253V38.2824V38.2395V38.1967V38.154V38.1112V38.0685V38.0259V37.9832V37.9407V37.8981V37.8556V37.8132V37.7707V37.7284V37.686V37.6437V37.6015V37.5593V37.5171V37.475V37.4329V37.3909V37.3489V37.307V37.2651V37.2233V37.1815V37.1398V37.0982V37.0565V37.015V36.9735V36.932V36.8906V36.8492V36.808V36.7667V36.7255V36.6844V36.6434V36.6024V36.5614V36.5205V36.4797V36.4389V36.3983V36.3576V36.3171V36.2765V36.2361V36.1957V36.1554V36.1152V36.075V36.0349V35.9949V35.9549V35.915V35.8752V35.8354V35.7957V35.7561V35.7166V35.6771V35.6377V35.5984V35.5592V35.52V35.4809V35.4419V35.403V35.3641V35.3254V35.2867V35.2481V35.2095V35.1711V35.1327V35.0944V35.0562V35.0181V34.9801V34.9422V34.9043V34.8665V34.8288V34.7913V34.7538V34.7163V34.679V34.6418V34.6047V34.5676V34.5306V34.4938V34.457V34.4203V34.3838V34.3473V34.3109V34.2746V34.2384V34.2023V34.1664V34.1305V34.0947V34.059V34.0234V33.9879V33.9525V33.9172V33.8821V33.847V33.812V33.7772V33.7424V33.7078V33.6733V33.6388V33.6045V33.5703V33.5362V33.5022V33.4683V33.4346V33.4009V33.3674V33.334V33.3007V33.2675V33.2344V33.2015V33.1686V33.1359V33.1033V33.0708V33.0385V33.0062V32.9741V32.9421V32.9102V32.8785V32.8469V32.8154V32.784V32.7527V32.7216V32.6906V32.6598V32.629V32.5984V32.5679V32.5376V32.5074V32.4773V32.4473V32.4175V32.3878V32.3582V32.3288V32.2995V32.2704V32.2414V32.2125V32.1838V32.1552V32.1267V32.0984V32.0702V32.0422V32.0143V31.9865V31.9589V31.9314V31.9041V31.8769V31.8499V31.823V31.7963V31.7697V31.7432V31.7169V31.6908V31.6648V31.639V31.6133V31.5877V31.5623V31.5371V31.512V31.4871V31.4623V31.4377V31.4132V31.3889V31.3648V31.3408V31.317V31.2933V31.2698V31.2464V31.2232V31.2002V31.1774V31.1547V31.1321V31.1098V31.0875V31.0655V31.0436V31.0219V31.0004V30.979V30.9578V30.9368V30.9159V30.8952V30.8747V30.8544V30.8342V30.8142V30.7944V30.7747V30.7553V30.736V30.7168V30.6979V30.6791V30.6605V30.6421V30.6239V30.6058V30.588V30.5703V30.5528V30.5355V30.5183V30.5014V30.4846V30.468V30.4516V30.4354V30.4194V30.4036V30.3879V30.3725V30.3572V30.3421V30.3272V30.3125V30.298V30.2837V30.2696V30.2557V30.242V30.2285V30.2151V30.202V30.1891V30.1763V30.1638V30.1514V30.1393V30.1274V30.1156V30.1041V30.0928V30.0816V30.0707V30.06V30.0495V30.0392V30.0291V30.0192V30.0095V30C31.9 28.9067 31.4243 28.1365 30.7759 27.6696C30.1734 27.2358 29.4774 27.1 29 27.1H28.9843H28.9686H28.9528H28.9369H28.921H28.905H28.8889H28.8728H28.8566H28.8403H28.8239H28.8075H28.7911H28.7745H28.7579H28.7412H28.7245H28.7077H28.6908H28.6739H28.6569H28.6398H28.6227H28.6055H28.5883H28.571H28.5536H28.5362H28.5187H28.5011H28.4835H28.4658H28.4481H28.4303H28.4124H28.3945H28.3765H28.3585H28.3404H28.3223H28.3041H28.2858H28.2675H28.2491H28.2307H28.2122H28.1937H28.1751H28.1564H28.1377H28.119H28.1001H28.0813H28.0624H28.0434H28.0244H28.0053H27.9862H27.967H27.9477H27.9285H27.9091H27.8897H27.8703H27.8508H27.8313H27.8117H27.7921H27.7724H27.7527H27.7329H27.7131H27.6932H27.6733H27.6533H27.6333H27.6133H27.5932H27.573H27.5529H27.5326H27.5123H27.492H27.4717H27.4513H27.4308H27.4103H27.3898H27.3692H27.3486H27.3279H27.3072H27.2865H27.2657H27.2449H27.224H27.2031H27.1822H27.1612H27.1402H27.1191H27.098H27.0769H27.0558H27.0345H27.0133H26.992H26.9707H26.9494H26.928H26.9066H26.8851H26.8636H26.8421H26.8206H26.799H26.7774H26.7557H26.734H26.7123H26.6906H26.6688H26.647H26.6252H26.6033H26.5814H26.5595H26.5375H26.5155H26.4935H26.4715H26.4494H26.4273H26.4052H26.383H26.3608H26.3386H26.3164H26.2941H26.2718H26.2495H26.2272H26.2048H26.1824H26.16H26.1376H26.1152H26.0927H26.0702H26.0477H26.0251H26.0025H25.98H25.9574H25.9347H25.9121H25.8894H25.8667H25.844H25.8213H25.7985H25.7758H25.753H25.7302H25.7074H25.6846H25.6617H25.6388H25.616H25.5931H25.5701H25.5472H25.5243H25.5013H25.4783H25.4553H25.4323H25.4093H25.3863H25.3633H25.3402H25.3172H25.2941H25.271H25.2479H25.2248H25.2017H25.1785H25.1554H25.1323H25.1091H25.0859H25.0628H25.0396H25.0164H24.9932H24.97H24.9468H24.9236H24.9003H24.8771H24.8539H24.8306H24.8074H24.7841H24.7609H24.7376H24.7144H24.6911H24.6679H24.6446H24.6213H24.598H24.5748H24.5515H24.5282H24.5049H24.4817H24.4584H24.4351H24.4118H24.3885H24.3653H24.342H24.3187H24.2955H24.2722H24.2489H24.2257H24.2024H24.1791H24.1559H24.1327H24.1094H24.0862H24.063H24.0397H24.0165H23.9933H23.9701H23.9469H23.9237H23.9005H23.8773H23.8542H23.831H23.8079H23.7847H23.7616H23.7385H23.7154H23.6923H23.6692H23.6461H23.6231H23.6H23.577H23.5539H23.5309H23.5079H23.4849H23.462H23.439H23.416H23.3931H23.3702H23.3473H23.3244H23.3015H23.2787H23.2559H23.233H23.2102H23.1874H23.1647H23.1419H23.1192H23.0965H23.0738H23.0511H23.0285H23.0058H22.9832H22.9607H22.9381H22.9155H22.893H22.8705H22.848H22.8256H22.8031H22.7807H22.7583H22.736H22.7136H22.6913H22.669H22.6468H22.6245H22.6023H22.5801H22.558H22.5358H22.5137H22.4917H22.4696H22.4476H22.4256H22.4036H22.3817H22.3598H22.3379H22.3161H22.2943H22.2725H22.2507H22.229H22.2073H22.1857H22.1641H22.1425H22.1209H22.0994H22.0779H22.0564H22.035H22.0136H21.9923H21.971H21.9497H21.9284H21.9072H21.8861H21.8649H21.8438H21.8228H21.8018H21.7808H21.7598H21.7389H21.7181H21.6972H21.6764H21.6557H21.635H21.6143H21.5937H21.5731H21.5526H21.5321H21.5116H21.4912H21.4708H21.4505H21.4302H21.41H21.3898H21.3696H21.3495H21.3295H21.3095H21.2895H21.2696H21.2497H21.2299H21.2101H21.1904H21.1707H21.151H21.1315H21.1119H21.0924H21.073H21.0536H21.0343H21.015H20.9957H20.9765H20.9574H20.9383H20.9193H20.9003H20.8814H20.8625H20.8437H20.8249H20.8062H20.7875H20.7689H20.7504H20.7319H20.7135H20.6951H20.6767H20.6585H20.6403H20.6221H20.604H20.586H20.568H20.5501H20.5322H20.5144H20.4967H20.479H20.4613H20.4438H20.4263H20.4088H20.3915H20.3741H20.3569H20.3397H20.3226H20.3055H20.2885H20.2715H20.2547H20.2378H20.2211H20.2044H20.1878H20.1712H20.1548H20.1383H20.122H20.1057H20.0895H20.0733H20.0572H20.0412H20.0253H20.0094H19.9936H19.9778H19.9622H19.9466H19.931H19.9156H19.9002H19.8849H19.8696H19.8545H19.8394H19.8243H19.8094H19.7945H19.7797H19.765H19.7503H19.7357H19.7212H19.7068H19.6924H19.6781H19.6639H19.6498H19.6357H19.6218H19.6079H19.594H19.5803H19.5666H19.5531H19.5395H19.5261H19.5128H19.4995H19.4863H19.4732H19.4602H19.4473H19.4344H19.4216H19.4089H19.3963H19.3838H19.3713H19.359H19.3467H19.3345H19.3224H19.3103H19.2984H19.2866H19.2748H19.2631H19.2515H19.24H19.2286H19.2172H19.206H19.1948H19.1838H19.1728H19.1619H19.1511H19.1404H19.1298H19.1192H19.1088H19.0984H19.0882H19.078H19.0679H19.0579H19.0481H19.0383H19.0285H19.0189H19.0094H19C17.9067 27.1 17.1365 27.5757 16.6696 28.2241C16.2358 28.8266 16.1 29.5226 16.1 30V47.0769H8.30758C6.83066 47.0769 6.46143 45.8462 6.46143 45.2308ZM17.9 47.0769H30.1V47.0633V47.0272V46.9909V46.9546V46.9181V46.8816V46.845V46.8082V46.7714V46.7345V46.6975V46.6604V46.6232V46.5859V46.5485V46.511V46.4735V46.4358V46.3981V46.3603V46.3223V46.2844V46.2463V46.2081V46.1699V46.1315V46.0931V46.0546V46.016V45.9774V45.9386V45.8998V45.8609V45.8219V45.7829V45.7437V45.7045V45.6652V45.6259V45.5864V45.5469V45.5073V45.4677V45.428V45.3882V45.3483V45.3083V45.2683V45.2282V45.1881V45.1479V45.1076V45.0672V45.0268V44.9863V44.9458V44.9052V44.8645V44.8238V44.783V44.7421V44.7012V44.6602V44.6192V44.5781V44.5369V44.4957V44.4544V44.4131V44.3717V44.3303V44.2888V44.2473V44.2057V44.164V44.1223V44.0805V44.0387V43.9969V43.955V43.913V43.871V43.829V43.7869V43.7447V43.7025V43.6603V43.618V43.5757V43.5334V43.4909V43.4485V43.406V43.3635V43.3209V43.2783V43.2357V43.193V43.1503V43.1075V43.0647V43.0219V42.979V42.9361V42.8932V42.8502V42.8072V42.7642V42.7211V42.678V42.6349V42.5918V42.5486V42.5054V42.4622V42.4189V42.3756V42.3323V42.289V42.2456V42.2022V42.1588V42.1154V42.072V42.0285V41.985V41.9415V41.898V41.8544V41.8109V41.7673V41.7237V41.6801V41.6365V41.5928V41.5492V41.5055V41.4618V41.4181V41.3744V41.3307V41.287V41.2433V41.1995V41.1558V41.112V41.0683V41.0245V40.9807V40.9369V40.8932V40.8494V40.8056V40.7618V40.718V40.6742V40.6304V40.5866V40.5428V40.499V40.4552V40.4114V40.3677V40.3239V40.2801V40.2363V40.1926V40.1488V40.1051V40.0613V40.0176V39.9738V39.9301V39.8864V39.8427V39.799V39.7554V39.7117V39.6681V39.6244V39.5808V39.5372V39.4936V39.4501V39.4065V39.363V39.3195V39.276V39.2325V39.1891V39.1456V39.1022V39.0588V39.0155V38.9721V38.9288V38.8855V38.8422V38.799V38.7558V38.7126V38.6694V38.6263V38.5832V38.5401V38.4971V38.4541V38.4111V38.3682V38.3253V38.2824V38.2395V38.1967V38.154V38.1112V38.0685V38.0259V37.9832V37.9407V37.8981V37.8556V37.8132V37.7707V37.7284V37.686V37.6437V37.6015V37.5593V37.5171V37.475V37.4329V37.3909V37.3489V37.307V37.2651V37.2233V37.1815V37.1398V37.0982V37.0565V37.015V36.9735V36.932V36.8906V36.8492V36.808V36.7667V36.7255V36.6844V36.6434V36.6024V36.5614V36.5205V36.4797V36.4389V36.3983V36.3576V36.3171V36.2765V36.2361V36.1957V36.1554V36.1152V36.075V36.0349V35.9949V35.9549V35.915V35.8752V35.8354V35.7957V35.7561V35.7166V35.6771V35.6377V35.5984V35.5592V35.52V35.4809V35.4419V35.403V35.3641V35.3254V35.2867V35.2481V35.2095V35.1711V35.1327V35.0944V35.0562V35.0181V34.9801V34.9422V34.9043V34.8665V34.8288V34.7913V34.7538V34.7163V34.679V34.6418V34.6047V34.5676V34.5306V34.4938V34.457V34.4203V34.3838V34.3473V34.3109V34.2746V34.2384V34.2023V34.1664V34.1305V34.0947V34.059V34.0234V33.9879V33.9525V33.9172V33.8821V33.847V33.812V33.7772V33.7424V33.7078V33.6733V33.6388V33.6045V33.5703V33.5362V33.5022V33.4683V33.4346V33.4009V33.3674V33.334V33.3007V33.2675V33.2344V33.2015V33.1686V33.1359V33.1033V33.0708V33.0385V33.0062V32.9741V32.9421V32.9102V32.8785V32.8469V32.8154V32.784V32.7527V32.7216V32.6906V32.6598V32.629V32.5984V32.5679V32.5376V32.5074V32.4773V32.4473V32.4175V32.3878V32.3582V32.3288V32.2995V32.2704V32.2414V32.2125V32.1838V32.1552V32.1267V32.0984V32.0702V32.0422V32.0143V31.9865V31.9589V31.9314V31.9041V31.8769V31.8499V31.823V31.7963V31.7697V31.7432V31.7169V31.6908V31.6648V31.639V31.6133V31.5877V31.5623V31.5371V31.512V31.4871V31.4623V31.4377V31.4132V31.3889V31.3648V31.3408V31.317V31.2933V31.2698V31.2464V31.2232V31.2002V31.1774V31.1547V31.1321V31.1098V31.0875V31.0655V31.0436V31.0219V31.0004V30.979V30.9578V30.9368V30.9159V30.8952V30.8747V30.8544V30.8342V30.8142V30.7944V30.7747V30.7553V30.736V30.7168V30.6979V30.6791V30.6605V30.6421V30.6239V30.6058V30.588V30.5703V30.5528V30.5355V30.5183V30.5014V30.4846V30.468V30.4516V30.4354V30.4194V30.4036V30.3879V30.3725V30.3572V30.3421V30.3272V30.3125V30.298V30.2837V30.2696V30.2557V30.242V30.2285V30.2151V30.202V30.1891V30.1763V30.1638V30.1514V30.1393V30.1274V30.1156V30.1041V30.0928V30.0816V30.0707V30.06V30.0495V30.0392V30.0291V30.0192V30.0095V30C30.1 29.4933 29.909 29.2635 29.7241 29.1304C29.4933 28.9642 29.1893 28.9 29 28.9H28.9843H28.9686H28.9528H28.9369H28.921H28.905H28.8889H28.8728H28.8566H28.8403H28.8239H28.8075H28.7911H28.7745H28.7579H28.7412H28.7245H28.7077H28.6908H28.6739H28.6569H28.6398H28.6227H28.6055H28.5883H28.571H28.5536H28.5362H28.5187H28.5011H28.4835H28.4658H28.4481H28.4303H28.4124H28.3945H28.3765H28.3585H28.3404H28.3223H28.3041H28.2858H28.2675H28.2491H28.2307H28.2122H28.1937H28.1751H28.1564H28.1377H28.119H28.1001H28.0813H28.0624H28.0434H28.0244H28.0053H27.9862H27.967H27.9477H27.9285H27.9091H27.8897H27.8703H27.8508H27.8313H27.8117H27.7921H27.7724H27.7527H27.7329H27.7131H27.6932H27.6733H27.6533H27.6333H27.6133H27.5932H27.573H27.5529H27.5326H27.5123H27.492H27.4717H27.4513H27.4308H27.4103H27.3898H27.3692H27.3486H27.3279H27.3072H27.2865H27.2657H27.2449H27.224H27.2031H27.1822H27.1612H27.1402H27.1191H27.098H27.0769H27.0558H27.0345H27.0133H26.992H26.9707H26.9494H26.928H26.9066H26.8851H26.8636H26.8421H26.8206H26.799H26.7774H26.7557H26.734H26.7123H26.6906H26.6688H26.647H26.6252H26.6033H26.5814H26.5595H26.5375H26.5155H26.4935H26.4715H26.4494H26.4273H26.4052H26.383H26.3608H26.3386H26.3164H26.2941H26.2718H26.2495H26.2272H26.2048H26.1824H26.16H26.1376H26.1152H26.0927H26.0702H26.0477H26.0251H26.0025H25.98H25.9574H25.9347H25.9121H25.8894H25.8667H25.844H25.8213H25.7985H25.7758H25.753H25.7302H25.7074H25.6846H25.6617H25.6388H25.616H25.5931H25.5701H25.5472H25.5243H25.5013H25.4783H25.4553H25.4323H25.4093H25.3863H25.3633H25.3402H25.3172H25.2941H25.271H25.2479H25.2248H25.2017H25.1785H25.1554H25.1323H25.1091H25.0859H25.0628H25.0396H25.0164H24.9932H24.97H24.9468H24.9236H24.9003H24.8771H24.8539H24.8306H24.8074H24.7841H24.7609H24.7376H24.7144H24.6911H24.6679H24.6446H24.6213H24.598H24.5748H24.5515H24.5282H24.5049H24.4817H24.4584H24.4351H24.4118H24.3885H24.3653H24.342H24.3187H24.2955H24.2722H24.2489H24.2257H24.2024H24.1791H24.1559H24.1327H24.1094H24.0862H24.063H24.0397H24.0165H23.9933H23.9701H23.9469H23.9237H23.9005H23.8773H23.8542H23.831H23.8079H23.7847H23.7616H23.7385H23.7154H23.6923H23.6692H23.6461H23.6231H23.6H23.577H23.5539H23.5309H23.5079H23.4849H23.462H23.439H23.416H23.3931H23.3702H23.3473H23.3244H23.3015H23.2787H23.2559H23.233H23.2102H23.1874H23.1647H23.1419H23.1192H23.0965H23.0738H23.0511H23.0285H23.0058H22.9832H22.9607H22.9381H22.9155H22.893H22.8705H22.848H22.8256H22.8031H22.7807H22.7583H22.736H22.7136H22.6913H22.669H22.6468H22.6245H22.6023H22.5801H22.558H22.5358H22.5137H22.4917H22.4696H22.4476H22.4256H22.4036H22.3817H22.3598H22.3379H22.3161H22.2943H22.2725H22.2507H22.229H22.2073H22.1857H22.1641H22.1425H22.1209H22.0994H22.0779H22.0564H22.035H22.0136H21.9923H21.971H21.9497H21.9284H21.9072H21.8861H21.8649H21.8438H21.8228H21.8018H21.7808H21.7598H21.7389H21.7181H21.6972H21.6764H21.6557H21.635H21.6143H21.5937H21.5731H21.5526H21.5321H21.5116H21.4912H21.4708H21.4505H21.4302H21.41H21.3898H21.3696H21.3495H21.3295H21.3095H21.2895H21.2696H21.2497H21.2299H21.2101H21.1904H21.1707H21.151H21.1315H21.1119H21.0924H21.073H21.0536H21.0343H21.015H20.9957H20.9765H20.9574H20.9383H20.9193H20.9003H20.8814H20.8625H20.8437H20.8249H20.8062H20.7875H20.7689H20.7504H20.7319H20.7135H20.6951H20.6767H20.6585H20.6403H20.6221H20.604H20.586H20.568H20.5501H20.5322H20.5144H20.4967H20.479H20.4613H20.4438H20.4263H20.4088H20.3915H20.3741H20.3569H20.3397H20.3226H20.3055H20.2885H20.2715H20.2547H20.2378H20.2211H20.2044H20.1878H20.1712H20.1548H20.1383H20.122H20.1057H20.0895H20.0733H20.0572H20.0412H20.0253H20.0094H19.9936H19.9778H19.9622H19.9466H19.931H19.9156H19.9002H19.8849H19.8696H19.8545H19.8394H19.8243H19.8094H19.7945H19.7797H19.765H19.7503H19.7357H19.7212H19.7068H19.6924H19.6781H19.6639H19.6498H19.6357H19.6218H19.6079H19.594H19.5803H19.5666H19.5531H19.5395H19.5261H19.5128H19.4995H19.4863H19.4732H19.4602H19.4473H19.4344H19.4216H19.4089H19.3963H19.3838H19.3713H19.359H19.3467H19.3345H19.3224H19.3103H19.2984H19.2866H19.2748H19.2631H19.2515H19.24H19.2286H19.2172H19.206H19.1948H19.1838H19.1728H19.1619H19.1511H19.1404H19.1298H19.1192H19.1088H19.0984H19.0882H19.078H19.0679H19.0579H19.0481H19.0383H19.0285H19.0189H19.0094H19C18.4933 28.9 18.2635 29.091 18.1304 29.2759C17.9642 29.5067 17.9 29.8107 17.9 30V47.0769ZM30.4614 24H17.5383C17.1691 24 16.8275 23.7785 16.6891 23.4277C16.5506 23.0862 16.6244 22.6892 16.8921 22.4215L23.3537 15.96C23.7137 15.6 24.2952 15.6 24.6552 15.96L31.1168 22.4215C31.3844 22.6892 31.4583 23.0862 31.3198 23.4277C31.1814 23.7692 30.8398 24 30.4706 24H30.4614Z" fill="#8AB61D"/>
</g>
<defs>
<clipPath id="clip0_3645_721">
<rect width="48" height="48" fill="white"/>
</clipPath>
</defs>
</svg>
