<svg width="48" height="48" viewBox="0 0 48 48" fill="none" xmlns="http://www.w3.org/2000/svg">
<g clip-path="url(#clip0_3645_718)">
<path d="M25 0C24.45 0 24 0.45 24 1C24 1.55 24.45 2 25 2C36.58 2 46 11.42 46 23C46 23.55 46.45 24 47 24C47.55 24 48 23.55 48 23C48 10.32 37.68 0 25 0ZM25 6C24.45 6 24 6.45 24 7C24 7.55 24.45 8 25 8C33.27 8 40 14.73 40 23C40 23.55 40.45 24 41 24C41.55 24 42 23.55 42 23C42 13.63 34.37 6 25 6ZM25 12C24.45 12 24 12.45 24 13C24 13.55 24.45 14 25 14C29.96 14 34 18.04 34 23C34 23.55 34.45 24 35 24C35.55 24 36 23.55 36 23C36 16.93 31.07 12 25 12Z" fill="#8AB61D"/>
<path d="M34.41 48C27.89 48 19.31 43.76 11.78 36.22C0.840016 25.28 -3.15998 12.15 2.68002 6.31C3.87002 5.12 5.88002 3.62 7.36002 2.57C8.07002 2.07 8.92002 1.89 9.77002 2.05C10.61 2.22 11.35 2.73 11.81 3.45L18.19 13.57C18.64 14.29 18.78 15.14 18.59 15.96C18.39 16.79 17.88 17.48 17.16 17.92L13.42 20.16C13.14 20.33 12.95 20.59 12.89 20.91C12.83 21.21 12.89 21.52 13.07 21.77C14.59 23.92 16.65 26.3 19.17 28.82C21.7 31.35 24.07 33.4 26.22 34.92C26.47 35.1 26.78 35.16 27.08 35.1C27.4 35.03 27.66 34.84 27.83 34.57L30.07 30.83C30.51 30.1 31.2 29.59 32.03 29.4C32.85 29.2 33.71 29.34 34.42 29.8L44.54 36.18C45.26 36.64 45.77 37.38 45.94 38.22C46.11 39.07 45.93 39.93 45.42 40.63C44.37 42.11 42.87 44.13 41.68 45.31C39.87 47.12 37.35 47.99 34.41 47.99V48Z" fill="#8AB61D"/>
</g>
<defs>
<clipPath id="clip0_3645_718">
<rect width="48" height="48" fill="white"/>
</clipPath>
</defs>
</svg>
