<svg width="24" height="24" viewBox="0 0 24 24" fill="none" xmlns="http://www.w3.org/2000/svg">
<g clip-path="url(#clip0_2783_7253)">
<path d="M21.6923 2H18.4615V1.5C18.4615 0.675 17.8385 0 17.0769 0C16.3154 0 15.6923 0.675 15.6923 1.5V2H8.30769V1.5C8.30769 0.675 7.68462 0 6.92308 0C6.16154 0 5.53846 0.675 5.53846 1.5V2H2.30769C1.03385 2 0 3.12 0 4.5V21.5C0 22.88 1.03385 24 2.30769 24H21.6923C22.9662 24 24 22.88 24 21.5V4.5C24 3.12 22.9662 2 21.6923 2ZM16.6154 1.5C16.6154 1.225 16.8231 1 17.0769 1C17.3308 1 17.5385 1.225 17.5385 1.5V4.5C17.5385 4.775 17.3308 5 17.0769 5C16.8231 5 16.6154 4.775 16.6154 4.5V1.5ZM6.46154 1.5C6.46154 1.225 6.66923 1 6.92308 1C7.17692 1 7.38462 1.225 7.38462 1.5V4.5C7.38462 4.775 7.17692 5 6.92308 5C6.66923 5 6.46154 4.775 6.46154 4.5V1.5ZM23.0769 21.5C23.0769 22.325 22.4538 23 21.6923 23H2.30769C1.54615 23 0.923077 22.325 0.923077 21.5V8H21.6923C21.9462 8 22.1538 7.775 22.1538 7.5C22.1538 7.225 21.9462 7 21.6923 7H0.923077V4.5C0.923077 3.675 1.54615 3 2.30769 3H5.53846V4.5C5.53846 5.325 6.16154 6 6.92308 6C7.68462 6 8.30769 5.325 8.30769 4.5V3H15.6923V4.5C15.6923 5.325 16.3154 6 17.0769 6C17.8385 6 18.4615 5.325 18.4615 4.5V3H21.6923C22.4538 3 23.0769 3.675 23.0769 4.5V21.5Z" fill="#8AB61D"/>
</g>
<defs>
<clipPath id="clip0_2783_7253">
<rect width="24" height="24" fill="white"/>
</clipPath>
</defs>
</svg>
