<svg width="24" height="24" viewBox="0 0 24 24" fill="none" xmlns="http://www.w3.org/2000/svg">
<path d="M18.6154 24H5.38844C5.25228 24 5.12779 23.9357 5.05777 23.832C4.98774 23.7284 4.97996 23.5961 5.04221 23.4853L7.37638 19.1966C7.44252 19.0751 7.57868 19 7.72262 19H11.3523C11.5662 19 11.7413 19.1608 11.7413 19.3574C11.7413 19.554 11.5662 19.7148 11.3523 19.7148H7.96382L6.01867 23.2888H17.9852L16.0401 19.7148H14.4567C14.2428 19.7148 14.0677 19.554 14.0677 19.3574C14.0677 19.1608 14.2428 19 14.4567 19H16.2774C16.4252 19 16.5575 19.0751 16.6236 19.1966L18.9578 23.4853C19.02 23.5961 19.0123 23.7284 18.9422 23.832C18.8722 23.9357 18.7477 24 18.6116 24H18.6154Z" fill="#8AB61D"/>
<path d="M12 0C7.59 0 4 3.43391 4 7.65217C4 10.517 6.03 12.9083 7.995 15.2278C9.795 17.3513 11.5 19.36 11.5 21.5217C11.5 21.7848 11.725 22 12 22C12.275 22 12.5 21.7848 12.5 21.5217C12.5 19.3552 14.2 17.3513 16.005 15.2278C17.97 12.913 20 10.517 20 7.65217C20 3.43391 16.41 0 12 0ZM15.23 14.6252C13.975 16.1078 12.685 17.6239 12 19.2404C11.315 17.6239 10.03 16.1078 8.77 14.6252C6.915 12.4396 5 10.1774 5 7.65217C5 3.96 8.14 0.956522 12 0.956522C15.86 0.956522 19 3.96 19 7.65217C19 10.1774 17.085 12.4348 15.23 14.6252ZM12 4.78261C10.345 4.78261 9 6.06913 9 7.65217C9 9.23522 10.345 10.5217 12 10.5217C13.655 10.5217 15 9.23522 15 7.65217C15 6.06913 13.655 4.78261 12 4.78261ZM12 9.56522C10.895 9.56522 10 8.70913 10 7.65217C10 6.59522 10.895 5.73913 12 5.73913C13.105 5.73913 14 6.59522 14 7.65217C14 8.70913 13.105 9.56522 12 9.56522Z" fill="#8AB61D"/>
</svg>
