<svg width="24" height="24" viewBox="0 0 24 24" fill="none" xmlns="http://www.w3.org/2000/svg">
<g clip-path="url(#clip0_2454_6245)">
<path d="M12.5 0C12.225 0 12 0.225 12 0.5C12 0.775 12.225 1 12.5 1C18.29 1 23 5.71 23 11.5C23 11.775 23.225 12 23.5 12C23.775 12 24 11.775 24 11.5C24 5.16 18.84 0 12.5 0ZM12.5 3C12.225 3 12 3.225 12 3.5C12 3.775 12.225 4 12.5 4C16.635 4 20 7.365 20 11.5C20 11.775 20.225 12 20.5 12C20.775 12 21 11.775 21 11.5C21 6.815 17.185 3 12.5 3ZM12.5 6C12.225 6 12 6.225 12 6.5C12 6.775 12.225 7 12.5 7C14.98 7 17 9.02 17 11.5C17 11.775 17.225 12 17.5 12C17.775 12 18 11.775 18 11.5C18 8.465 15.535 6 12.5 6Z" fill="#8AB61D"/>
<path d="M17.2054 23.9999C13.9454 23.9999 9.65537 21.8799 5.89037 18.1099C0.420374 12.6399 -1.57963 6.07495 1.34037 3.15495C1.93537 2.55995 2.94037 1.80995 3.68037 1.28495C4.03537 1.03495 4.46037 0.944949 4.88537 1.02495C5.30537 1.10995 5.67537 1.36495 5.90537 1.72495L9.09538 6.78495C9.32038 7.14495 9.39038 7.56995 9.29537 7.97995C9.19537 8.39495 8.94037 8.73995 8.58037 8.95995L6.71037 10.0799C6.57037 10.1649 6.47537 10.2949 6.44537 10.4549C6.41537 10.6049 6.44537 10.7599 6.53537 10.8849C7.29537 11.9599 8.32537 13.1499 9.58537 14.4099C10.8504 15.6749 12.0354 16.6999 13.1104 17.4599C13.2354 17.5499 13.3904 17.5799 13.5404 17.5499C13.7004 17.5149 13.8304 17.4199 13.9154 17.2849L15.0354 15.4149C15.2554 15.0499 15.6004 14.7949 16.0154 14.6999C16.4254 14.5999 16.8554 14.6699 17.2104 14.8999L22.2704 18.0899C22.6304 18.3199 22.8854 18.6899 22.9704 19.1099C23.0554 19.5349 22.9654 19.9649 22.7104 20.3149C22.1854 21.0549 21.4354 22.0649 20.8404 22.6549C19.9354 23.5599 18.6754 23.9949 17.2054 23.9949V23.9999ZM4.58037 1.99995C4.46537 1.99995 4.35537 2.03495 4.25537 2.10495C3.54537 2.60995 2.58537 3.31995 2.04037 3.86495C-0.394626 6.29995 1.68537 12.5049 6.59037 17.4049C11.4954 22.3099 17.6954 24.3899 20.1304 21.9549C20.6754 21.4099 21.3854 20.4499 21.8904 19.7399C21.9804 19.6149 22.0154 19.4599 21.9854 19.3049C21.9554 19.1499 21.8654 19.0199 21.7304 18.9399L16.6704 15.7499C16.5404 15.6699 16.3904 15.6449 16.2404 15.6799C16.0904 15.7149 15.9654 15.8099 15.8854 15.9399L14.7654 17.8099C14.5404 18.1849 14.1654 18.4499 13.7404 18.5399C13.3204 18.6299 12.8754 18.5399 12.5254 18.2899C11.3854 17.4849 10.1904 16.4499 8.87037 15.1299C7.55037 13.8099 6.51537 12.61 5.71037 11.4749C5.46537 11.1249 5.37037 10.6849 5.46037 10.2599C5.55037 9.83495 5.81537 9.45995 6.19037 9.23495L8.06038 8.11495C8.19038 8.03495 8.28537 7.90995 8.32037 7.75995C8.35537 7.60995 8.33037 7.45995 8.25037 7.32995L5.06037 2.26995C4.97537 2.13995 4.84537 2.04995 4.69537 2.01495C4.66037 2.00995 4.62037 2.00495 4.58537 2.00495L4.58037 1.99995Z" fill="#8AB61D"/>
</g>
<defs>
<clipPath id="clip0_2454_6245">
<rect width="24" height="24" fill="white"/>
</clipPath>
</defs>
</svg>
