<svg width="48" height="48" viewBox="0 0 48 48" fill="none" xmlns="http://www.w3.org/2000/svg">
<g clip-path="url(#clip0_3645_745)">
<path d="M39.111 47H8.88877C8.57766 47 8.29321 46.8408 8.13321 46.5842C7.97321 46.3277 7.95543 46.0004 8.09766 45.7262L13.431 35.1108C13.5821 34.81 13.8932 34.6242 14.2221 34.6242H22.5154C23.0043 34.6242 23.4043 35.0223 23.4043 35.5088C23.4043 35.9954 23.0043 36.3935 22.5154 36.3935H14.7732L10.3288 45.2396H37.671L33.2265 36.3935H29.6088C29.1199 36.3935 28.7199 35.9954 28.7199 35.5088C28.7199 35.0223 29.1199 34.6242 29.6088 34.6242H33.7688C34.1065 34.6242 34.4088 34.81 34.5599 35.1108L39.8932 45.7262C40.0354 46.0004 40.0177 46.3277 39.8577 46.5842C39.6977 46.8408 39.4132 47 39.1021 47H39.111Z" fill="#8AB61D"/>
<path fill-rule="evenodd" clip-rule="evenodd" d="M9.77783 15.1538C9.77783 7.35154 16.1601 1 24.0001 1C31.8401 1 38.2223 7.35154 38.2223 15.1538C38.2223 20.4527 34.6134 24.8846 31.1201 29.1662C27.9112 33.0938 24.8889 36.8004 24.8889 40.8077C24.8889 41.2942 24.4889 41.6923 24.0001 41.6923C23.5112 41.6923 23.1112 41.2942 23.1112 40.8077C23.1112 36.8142 20.0876 33.1031 16.8921 29.1809L16.8801 29.1662L16.8619 29.1438C13.3742 24.8604 9.77783 20.4435 9.77783 15.1538ZM24.0001 20.4615C26.9456 20.4615 29.3334 18.0852 29.3334 15.1538C29.3334 12.2225 26.9456 9.84615 24.0001 9.84615C21.0545 9.84615 18.6667 12.2225 18.6667 15.1538C18.6667 18.0852 21.0545 20.4615 24.0001 20.4615Z" fill="#8AB61D"/>
</g>
<defs>
<clipPath id="clip0_3645_745">
<rect width="32" height="46" fill="white" transform="translate(8 1)"/>
</clipPath>
</defs>
</svg>
