<svg width="24" height="24" viewBox="0 0 24 24" fill="none" xmlns="http://www.w3.org/2000/svg">
<g clip-path="url(#clip0_2783_7253)">
<path d="M21.6923 2H18.4615V1.5C18.4615 0.675 17.8385 0 17.0769 0C16.3154 0 15.6923 0.675 15.6923 1.5V2H8.30769V1.5C8.30769 0.675 7.68462 0 6.92308 0C6.16154 0 5.53846 0.675 5.53846 1.5V2H2.30769C1.03385 2 0 3.12 0 4.5V21.5C0 22.88 1.03385 24 2.30769 24H21.6923C22.9662 24 24 22.88 24 21.5V4.5C24 3.12 22.9662 2 21.6923 2ZM16.6154 1.5C16.6154 1.225 16.8231 1 17.0769 1C17.3308 1 17.5385 1.225 17.5385 1.5V4.5C17.5385 4.775 17.3308 5 17.0769 5C16.8231 5 16.6154 4.775 16.6154 4.5V1.5ZM6.46154 1.5C6.46154 1.225 6.66923 1 6.92308 1C7.17692 1 7.38462 1.225 7.38462 1.5V4.5C7.38462 4.775 7.17692 5 6.92308 5C6.66923 5 6.46154 4.775 6.46154 4.5V1.5ZM23.0769 21.5C23.0769 22.325 22.4538 23 21.6923 23H2.30769C1.54615 23 0.923077 22.325 0.923077 21.5V8H21.6923C21.9462 8 22.1538 7.775 22.1538 7.5C22.1538 7.225 21.9462 7 21.6923 7H0.923077V4.5C0.923077 3.675 1.54615 3 2.30769 3H5.53846V4.5C5.53846 5.325 6.16154 6 6.92308 6C7.68462 6 8.30769 5.325 8.30769 4.5V3H15.6923V4.5C15.6923 5.325 16.3154 6 17.0769 6C17.8385 6 18.4615 5.325 18.4615 4.5V3H21.6923C22.4538 3 23.0769 3.675 23.0769 4.5V21.5Z" fill="#8AB61D"/>
<path d="M6.00008 11H4.15392C3.90008 11 3.69238 11.225 3.69238 11.5C3.69238 11.775 3.90008 12 4.15392 12H6.00008C6.25392 12 6.46161 11.775 6.46161 11.5C6.46161 11.225 6.25392 11 6.00008 11ZM10.6155 11H8.76931C8.51546 11 8.30777 11.225 8.30777 11.5C8.30777 11.775 8.51546 12 8.76931 12H10.6155C10.8693 12 11.077 11.775 11.077 11.5C11.077 11.225 10.8693 11 10.6155 11ZM15.2308 11H13.3847C13.1308 11 12.9232 11.225 12.9232 11.5C12.9232 11.775 13.1308 12 13.3847 12H15.2308C15.4847 12 15.6924 11.775 15.6924 11.5C15.6924 11.225 15.4847 11 15.2308 11ZM18.0001 12H19.8462C20.1001 12 20.3078 11.775 20.3078 11.5C20.3078 11.225 20.1001 11 19.8462 11H18.0001C17.7462 11 17.5385 11.225 17.5385 11.5C17.5385 11.775 17.7462 12 18.0001 12ZM6.00008 15H4.15392C3.90008 15 3.69238 15.225 3.69238 15.5C3.69238 15.775 3.90008 16 4.15392 16H6.00008C6.25392 16 6.46161 15.775 6.46161 15.5C6.46161 15.225 6.25392 15 6.00008 15ZM10.6155 15H8.76931C8.51546 15 8.30777 15.225 8.30777 15.5C8.30777 15.775 8.51546 16 8.76931 16H10.6155C10.8693 16 11.077 15.775 11.077 15.5C11.077 15.225 10.8693 15 10.6155 15ZM15.2308 15H13.3847C13.1308 15 12.9232 15.225 12.9232 15.5C12.9232 15.775 13.1308 16 13.3847 16H15.2308C15.4847 16 15.6924 15.775 15.6924 15.5C15.6924 15.225 15.4847 15 15.2308 15ZM19.8462 15H18.0001C17.7462 15 17.5385 15.225 17.5385 15.5C17.5385 15.775 17.7462 16 18.0001 16H19.8462C20.1001 16 20.3078 15.775 20.3078 15.5C20.3078 15.225 20.1001 15 19.8462 15ZM6.00008 19H4.15392C3.90008 19 3.69238 19.225 3.69238 19.5C3.69238 19.775 3.90008 20 4.15392 20H6.00008C6.25392 20 6.46161 19.775 6.46161 19.5C6.46161 19.225 6.25392 19 6.00008 19ZM10.6155 19H8.76931C8.51546 19 8.30777 19.225 8.30777 19.5C8.30777 19.775 8.51546 20 8.76931 20H10.6155C10.8693 20 11.077 19.775 11.077 19.5C11.077 19.225 10.8693 19 10.6155 19ZM15.2308 19H13.3847C13.1308 19 12.9232 19.225 12.9232 19.5C12.9232 19.775 13.1308 20 13.3847 20H15.2308C15.4847 20 15.6924 19.775 15.6924 19.5C15.6924 19.225 15.4847 19 15.2308 19Z" fill="#8AB61D"/>
</g>
<defs>
<clipPath id="clip0_2783_7253">
<rect width="24" height="24" fill="white"/>
</clipPath>
</defs>
</svg>
