<svg width="24" height="24" viewBox="0 0 24 24" fill="none" xmlns="http://www.w3.org/2000/svg">
<path d="M21.6923 3H2.30769C1.03385 3 0 4.05778 0 5.36111V17.6389C0 18.9422 1.03385 20 2.30769 20H21.6923C22.9662 20 24 18.9422 24 17.6389V5.36111C24 4.05778 22.9662 3 21.6923 3ZM23.0769 17.6389C23.0769 18.4181 22.4538 19.0556 21.6923 19.0556H2.30769C1.54615 19.0556 0.923077 18.4181 0.923077 17.6389V5.36111C0.923077 4.58194 1.54615 3.94444 2.30769 3.94444H21.6923C22.4538 3.94444 23.0769 4.58194 23.0769 5.36111V17.6389ZM22.02 5.02583C21.84 4.84167 21.5492 4.84167 21.3692 5.02583L12.9831 13.6061C12.4615 14.1397 11.5477 14.1397 11.0262 13.6061L2.63538 5.02583C2.45538 4.84167 2.16462 4.84167 1.98462 5.02583C1.80462 5.21 1.80462 5.5075 1.98462 5.69167L7.65692 11.4953L1.98462 17.2989C1.80462 17.4831 1.80462 17.7806 1.98462 17.9647C2.07692 18.0592 2.19231 18.1017 2.31231 18.1017C2.43231 18.1017 2.54769 18.0544 2.64 17.9647L8.31231 12.1611L10.3708 14.2672C10.8185 14.7253 11.4092 14.9567 12.0046 14.9567C12.6 14.9567 13.1862 14.7253 13.6385 14.2672L15.6969 12.1611L21.3692 17.9647C21.4615 18.0592 21.5769 18.1017 21.6969 18.1017C21.8169 18.1017 21.9323 18.0544 22.0246 17.9647C22.2046 17.7806 22.2046 17.4831 22.0246 17.2989L16.3523 11.4953L22.0246 5.69167C22.2046 5.5075 22.2046 5.21 22.0246 5.02583H22.02Z" fill="#8AB61D"/>
</svg>
