<svg width="48" height="48" viewBox="0 0 48 48" fill="none" xmlns="http://www.w3.org/2000/svg">
<path fill-rule="evenodd" clip-rule="evenodd" d="M5.42308 8H42.5769C45.0185 8 47 9.99111 47 12.4444V35.5556C47 38.0089 45.0185 40 42.5769 40H5.42308C2.98154 40 1 38.0089 1 35.5556V12.4444C1 9.99111 2.98154 8 5.42308 8ZM6.061 11.8096C5.71038 11.4573 5.14053 11.4559 4.78822 11.8065C4.4359 12.1571 4.43453 12.727 4.78515 13.0793L15.6533 24L4.78515 34.9207C4.43453 35.273 4.4359 35.8429 4.78822 36.1935C5.14053 36.5441 5.71038 36.5427 6.061 36.1904L16.9231 25.2759L20.7082 29.0793C21.252 29.6257 22.2123 30.2733 23.3903 30.466C24.6248 30.6679 26.0232 30.3541 27.2918 29.0793L31.0769 25.2759L41.939 36.1904C42.2896 36.5427 42.8595 36.5441 43.2118 36.1935C43.5641 35.8429 43.5655 35.273 43.2149 34.9207L32.3467 24L43.2149 13.0793C43.5655 12.727 43.5641 12.1571 43.2118 11.8065C42.8595 11.4559 42.2896 11.4573 41.939 11.8096L30.439 23.3651L26.0159 27.8096C25.1615 28.6682 24.3482 28.7987 23.6809 28.6896C22.9569 28.5712 22.3249 28.152 21.9841 27.8096L17.561 23.3651L6.061 11.8096Z" fill="#8AB61D"/>
</svg>
