<svg width="135" height="135" viewBox="0 0 135 135" fill="none" xmlns="http://www.w3.org/2000/svg">
<g clip-path="url(#clip0_3544_95)">
<path fill-rule="evenodd" clip-rule="evenodd" d="M60.9166 84.7527C70.6089 87.1201 80.3852 81.182 82.7526 71.4897C85.12 61.7974 79.182 52.0211 69.4897 49.6537C59.7973 47.2863 50.021 53.2243 47.6536 62.9167C45.2863 72.609 51.2243 82.3853 60.9166 84.7527ZM75.985 63.9518C76.398 63.6719 76.5058 63.1102 76.2258 62.6973C75.9459 62.2843 75.3842 62.1765 74.9713 62.4565L61.6239 71.5057L57.1893 64.5732C56.9205 64.1529 56.3619 64.0302 55.9416 64.299C55.5214 64.5678 55.3986 65.1264 55.6674 65.5467L60.602 73.2608L61.1019 74.0422L61.8698 73.5216L75.985 63.9518Z" fill="#007344"/>
</g>
<g clip-path="url(#clip1_3544_95)">
<path fill-rule="evenodd" clip-rule="evenodd" d="M66.1312 31.3598C64.409 38.5222 67.6277 48.7667 72.9996 50.0584C74.8652 50.507 76.9905 49.8757 79.0422 48.5606C80.2716 50.6647 81.8775 52.1931 83.7432 52.6417C89.1151 53.9334 96.6396 46.2721 98.3618 39.1097C100.084 31.9474 97.7945 25.7145 90.6319 23.9922C88.5341 23.4878 86.6328 23.5181 84.9494 23.9931C83.666 22.8047 81.9862 21.9134 79.8884 21.4089C72.7259 19.6867 67.8534 24.1975 66.1312 31.3598ZM75.2994 32.6173C75.4183 32.1228 75.9155 31.8184 76.41 31.9372C77.8933 32.2939 78.8067 33.7856 78.45 35.269L78.0195 37.0595C77.9006 37.554 77.4034 37.8585 76.9089 37.7396C75.4255 37.3829 74.5122 35.8912 74.8688 34.4079L75.2994 32.6173ZM88.9441 34.9511C89.4386 35.07 89.743 35.5672 89.6241 36.0617L89.1936 37.8523C88.8369 39.3356 87.3452 40.249 85.8619 39.8923C85.3674 39.7734 85.0629 39.2762 85.1818 38.7817L85.6124 36.9912C85.9691 35.5078 87.4607 34.5944 88.9441 34.9511Z" fill="#8AB61D"/>
<path fill-rule="evenodd" clip-rule="evenodd" d="M80.7497 17.828C82.7275 18.3036 83.9453 20.2925 83.4698 22.2703L83.0392 24.0609C82.8014 25.0498 83.4103 26.0442 84.3993 26.282V26.282C85.3882 26.5198 86.3826 25.9109 86.6204 24.922L87.0509 23.1314C88.0021 19.1757 85.5664 15.198 81.6108 14.2468L79.8202 13.8163C78.8313 13.5785 77.8368 14.1874 77.5991 15.1763C77.3613 16.1652 77.9702 17.1597 78.9591 17.3975L80.7497 17.828Z" fill="#007344"/>
<path d="M97.3934 14.2535L100.975 15.1146C101.634 15.2731 102.04 15.9361 101.881 16.5954C101.089 19.8918 97.7739 21.9215 94.4775 21.1289L90.8963 20.2678C90.2371 20.1092 89.8311 19.4463 89.9896 18.787C90.7823 15.4906 94.0971 13.4609 97.3934 14.2535Z" fill="#007344"/>
</g>
<g clip-path="url(#clip2_3544_95)">
<path d="M113.9 32.1213C114.163 31.0272 113.489 29.9269 112.395 29.6639C111.301 29.4008 110.201 30.0745 109.938 31.1686L108.34 37.8124C108.176 38.4934 108.383 39.2036 108.831 39.7422C109.655 40.7342 110.318 41.8157 110.826 43.0014C111.102 43.6451 111.641 44.1519 112.322 44.3157L118.966 45.9132C120.06 46.1762 121.16 45.5026 121.423 44.4084C121.686 43.3143 121.013 42.2141 119.919 41.951L114.796 40.7193L120.431 37.2691C121.39 36.6815 121.692 35.4271 121.104 34.4674C120.517 33.5077 119.262 33.2061 118.303 33.7938L112.668 37.2439L113.9 32.1213Z" fill="#007344"/>
<path d="M97.9152 39.4188C97.636 38.9629 97.0511 38.7984 96.587 39.0636C93.8519 40.6259 91.1246 42.8816 88.6605 45.4036C88.3386 45.7331 88.2864 46.2392 88.5269 46.632L89.6782 48.5123C90.2659 49.472 89.9643 50.7264 89.0046 51.314C88.0449 51.9016 86.7905 51.6 86.2029 50.6403L86.0682 50.4203C85.6999 49.8188 84.8466 49.7651 84.4207 50.3272C82.043 53.4651 80.2408 56.6029 79.4204 59.0614C79.2423 59.5951 79.5767 60.1412 80.133 60.2252C84.6261 60.9038 92.3509 59.8438 99.0513 57.3306C99.6399 57.1098 99.8702 56.4068 99.542 55.8707L98.0894 53.4985C97.5017 52.5388 97.8034 51.2844 98.763 50.6968C99.7227 50.1092 100.977 50.4108 101.565 51.3704L103.37 54.3185C103.654 54.7818 104.252 54.9427 104.72 54.6664C108.254 52.5786 110.899 49.9644 111.638 46.8919C112.59 42.9297 109.581 38.0149 105.619 37.0621C104.679 36.8361 103.696 36.7885 102.685 36.8943C101.993 36.9667 101.667 37.7428 102.03 38.3357L102.442 39.0076C103.029 39.9673 102.728 41.2217 101.768 41.8093C100.808 42.3969 99.5541 42.0953 98.9664 41.1356L97.9152 39.4188Z" fill="#F45F1F"/>
</g>
<path d="M44.7237 44.1848C44.678 44.5651 44.5711 44.9684 44.3991 45.3031C43.3122 47.419 40.7446 49.0784 37.746 49.7184C34.8688 50.3326 31.987 49.9271 30.1207 48.5943C30.1155 48.5907 30.1056 48.5839 30.0917 48.5746C30.0046 48.5159 29.7639 48.3534 29.5888 48.1839C29.3323 47.9358 29.1147 47.6172 28.9558 47.2977C28.7981 46.9805 28.656 46.5772 28.6306 46.1466C28.6051 45.7143 28.6966 45.1103 29.1919 44.6476C29.6713 44.1996 30.2971 44.1032 30.8479 44.1383C33.6876 44.2654 35.0659 44.2987 36.368 44.0268C37.667 43.7556 38.9438 43.1685 41.5273 41.8569L41.5418 41.8496C42.1048 41.5734 42.7702 41.3972 43.4237 41.6128C44.1302 41.8459 44.4789 42.416 44.626 42.8827C44.7684 43.3347 44.7693 43.8062 44.7237 44.1848Z" fill="#007344"/>
<path d="M31.9894 37.9295C32.0507 37.4888 31.8996 36.9988 31.6793 36.5695C31.4495 36.1219 31.1038 35.6605 30.6693 35.2561C29.8033 34.4499 28.5166 33.8135 27.0163 34.0685C25.463 34.3324 24.5212 35.5551 24.0338 36.7433C23.7866 37.3462 23.6408 37.9726 23.585 38.5319C23.5307 39.0762 23.5554 39.6161 23.7014 40.0207C23.7691 40.2084 23.928 40.3486 24.1226 40.3924C24.3174 40.4363 24.521 40.3779 24.6626 40.2373C25.0566 39.8468 25.4507 39.3433 25.8149 38.878C25.9808 38.6661 26.1405 38.4622 26.2911 38.2805C26.8255 37.6357 27.2638 37.2397 27.6742 37.1308C28.064 37.0274 28.5675 37.1561 29.2326 37.4628C29.4704 37.5724 29.7041 37.6924 29.9461 37.8165L29.948 37.8175C30.0336 37.8613 30.1202 37.9058 30.2085 37.9507C30.5352 38.1162 30.8814 38.2841 31.2191 38.4012C31.3843 38.4584 31.5666 38.4386 31.7157 38.3474C31.8649 38.256 31.9653 38.1028 31.9894 37.9295Z" fill="#007344"/>
<path d="M38.0603 36.6334C37.8244 36.2562 37.7623 35.7472 37.7881 35.2654C37.8151 34.7629 37.9422 34.2006 38.1737 33.6541C38.6351 32.5645 39.5499 31.4582 41.0234 31.0784C42.5491 30.685 43.9081 31.4166 44.8382 32.3022C45.3101 32.7516 45.6988 33.2639 45.9782 33.7516C46.2501 34.2263 46.4478 34.7293 46.4798 35.1583C46.4946 35.3572 46.4068 35.5501 46.2471 35.6695C46.0873 35.7891 45.8776 35.8189 45.6908 35.7485C45.1718 35.5528 44.6063 35.2541 44.0839 34.9781C43.846 34.8524 43.6169 34.7315 43.4053 34.6271C42.6542 34.2567 42.0923 34.0742 41.6733 34.1424C41.2753 34.2072 40.8681 34.5302 40.3864 35.0818C40.214 35.2789 40.0497 35.4839 39.8794 35.696L39.8782 35.6976C39.8179 35.7727 39.7569 35.8486 39.6946 35.9256C39.4639 36.2101 39.2165 36.5047 38.9561 36.7495C38.8286 36.8692 38.6543 36.9255 38.4809 36.9031C38.3074 36.8806 38.1532 36.7817 38.0603 36.6334Z" fill="#007344"/>
<path fill-rule="evenodd" clip-rule="evenodd" d="M39.683 58.8665C51.0467 56.4408 58.2924 45.2622 55.8667 33.8984C53.4409 22.5347 42.2623 15.289 30.8986 17.7147C19.5349 20.1405 12.2892 31.3191 14.7149 42.6828C17.1406 54.0465 28.3192 61.2923 39.683 58.8665ZM39.1949 56.5803C49.2961 54.4241 55.7367 44.4876 53.5805 34.3865C51.4242 24.2853 41.4878 17.8447 31.3866 20.001C21.2854 22.1572 14.8449 32.0936 17.0011 42.1948C19.1573 52.296 29.0938 58.7365 39.1949 56.5803Z" fill="#007344"/>
<path fill-rule="evenodd" clip-rule="evenodd" d="M28.0766 81.1386C21.3427 76.9744 12.7092 78.0596 8.29709 85.2926C3.88498 92.5256 5.86611 101.593 12.6757 106.26C18.3374 110.139 33.9387 117.138 39.0376 119.387C39.6081 119.639 39.8933 119.765 40.1766 119.759C40.4239 119.754 40.6706 119.674 40.8741 119.533C41.1073 119.372 41.2649 119.103 41.5801 118.565C44.3973 113.757 52.9491 98.9498 55.2684 92.4901C58.0578 84.7209 54.443 76.12 46.5446 72.9279C38.6462 69.7358 31.0985 73.8205 28.0766 81.1386Z" fill="#8AB61D" stroke="#8AB61D" stroke-width="2" stroke-linecap="round" stroke-linejoin="round"/>
<rect x="27.5853" y="87.1396" width="4.66192" height="18.6477" transform="rotate(-17.9151 27.5853 87.1396)" fill="white"/>
<rect x="24.5165" y="100.38" width="4.66192" height="18.6477" transform="rotate(-107.915 24.5165 100.38)" fill="white"/>
<path fill-rule="evenodd" clip-rule="evenodd" d="M93.7774 75.8175C93.7774 75.8175 92.2919 72.924 94.9686 71.1174C97.6453 69.3107 99.7732 71.7706 99.7732 71.7706L116.394 96.3963C116.394 96.3963 117.88 99.2898 115.203 101.096C112.526 102.903 110.399 100.443 110.399 100.443L103.1 89.6293L79.1165 105.817L86.4154 116.631C86.4154 116.631 87.9008 119.524 85.2241 121.331C82.5474 123.138 80.4195 120.678 80.4195 120.678L63.7983 96.0521C63.7983 96.0521 62.3128 93.1586 64.9895 91.352C67.6662 89.5453 69.7941 92.0052 69.7941 92.0052L77.093 102.819L101.076 86.6314L93.7774 75.8175ZM62.3176 112.792L57.9094 106.261C57.9094 106.261 56.1027 103.584 58.7794 101.777C61.4561 99.9707 63.175 102.517 63.175 102.517L74.1027 118.708C74.1027 118.708 75.9094 121.384 73.2327 123.191C70.556 124.998 68.7493 122.321 68.7493 122.321L64.3411 115.79L61.129 117.958L59.1056 114.96L62.3176 112.792ZM121.087 77.4886L117.875 79.6566L122.283 86.1878C122.283 86.1878 124.09 88.8645 121.413 90.6711C118.737 92.4778 116.93 89.8011 116.93 89.8011L106.09 73.7408C106.09 73.7408 104.283 71.0641 106.96 69.2575C109.637 67.4508 111.443 70.1275 111.443 70.1275L115.852 76.6587L119.064 74.4907L121.087 77.4886Z" fill="#5E5E5E"/>
<defs>
<clipPath id="clip0_3544_95">
<rect width="43.3569" height="43.3569" fill="white" transform="translate(49.2876 41) rotate(13.726)"/>
</clipPath>
<clipPath id="clip1_3544_95">
<rect width="44.199" height="44.199" fill="white" transform="translate(66.7871 5) rotate(13.5202)"/>
</clipPath>
<clipPath id="clip2_3544_95">
<rect width="48.901" height="48.901" fill="white" transform="translate(85.6567 15.4971) rotate(13.5202)"/>
</clipPath>
</defs>
</svg>
