<svg width="100" height="100" viewBox="0 0 100 100" fill="none" xmlns="http://www.w3.org/2000/svg">
<g clip-path="url(#clip0_3544_93)">
<path d="M91.6822 14.75H83.2014V13.5625C83.2014 11.6031 81.5658 10 79.5668 10C77.5678 10 75.9322 11.6031 75.9322 13.5625V14.75H56.5476V13.5625C56.5476 11.6031 54.912 10 52.9129 10C50.9139 10 49.2783 11.6031 49.2783 13.5625V14.75H40.7976C37.4537 14.75 34.7399 17.41 34.7399 20.6875V61.0625C34.7399 64.34 37.4537 67 40.7976 67H91.6822C95.026 67 97.7399 64.34 97.7399 61.0625V20.6875C97.7399 17.41 95.026 14.75 91.6822 14.75ZM78.3553 13.5625C78.3553 12.9094 78.9004 12.375 79.5668 12.375C80.2331 12.375 80.7783 12.9094 80.7783 13.5625V20.6875C80.7783 21.3406 80.2331 21.875 79.5668 21.875C78.9004 21.875 78.3553 21.3406 78.3553 20.6875V13.5625ZM51.7014 13.5625C51.7014 12.9094 52.2466 12.375 52.9129 12.375C53.5793 12.375 54.1245 12.9094 54.1245 13.5625V20.6875C54.1245 21.3406 53.5793 21.875 52.9129 21.875C52.2466 21.875 51.7014 21.3406 51.7014 20.6875V13.5625ZM95.3168 61.0625C95.3168 63.0219 93.6812 64.625 91.6822 64.625H40.7976C38.7985 64.625 37.1629 63.0219 37.1629 61.0625V29H91.6822C92.3485 29 92.8937 28.4656 92.8937 27.8125C92.8937 27.1594 92.3485 26.625 91.6822 26.625H37.1629V20.6875C37.1629 18.7281 38.7985 17.125 40.7976 17.125H49.2783V20.6875C49.2783 22.6469 50.9139 24.25 52.9129 24.25C54.912 24.25 56.5476 22.6469 56.5476 20.6875V17.125H75.9322V20.6875C75.9322 22.6469 77.5678 24.25 79.5668 24.25C81.5658 24.25 83.2014 22.6469 83.2014 20.6875V17.125H91.6822C93.6812 17.125 95.3168 18.7281 95.3168 20.6875V61.0625Z" fill="#8AB61D"/>
<path d="M50.4898 36.125H45.6437C44.9773 36.125 44.4321 36.6594 44.4321 37.3125C44.4321 37.9656 44.9773 38.5 45.6437 38.5H50.4898C51.1562 38.5 51.7014 37.9656 51.7014 37.3125C51.7014 36.6594 51.1562 36.125 50.4898 36.125ZM62.6052 36.125H57.7591C57.0927 36.125 56.5475 36.6594 56.5475 37.3125C56.5475 37.9656 57.0927 38.5 57.7591 38.5H62.6052C63.2716 38.5 63.8167 37.9656 63.8167 37.3125C63.8167 36.6594 63.2716 36.125 62.6052 36.125ZM74.7206 36.125H69.8744C69.2081 36.125 68.6629 36.6594 68.6629 37.3125C68.6629 37.9656 69.2081 38.5 69.8744 38.5H74.7206C75.3869 38.5 75.9321 37.9656 75.9321 37.3125C75.9321 36.6594 75.3869 36.125 74.7206 36.125ZM81.9898 38.5H86.836C87.5023 38.5 88.0475 37.9656 88.0475 37.3125C88.0475 36.6594 87.5023 36.125 86.836 36.125H81.9898C81.3235 36.125 80.7783 36.6594 80.7783 37.3125C80.7783 37.9656 81.3235 38.5 81.9898 38.5ZM50.4898 45.625H45.6437C44.9773 45.625 44.4321 46.1594 44.4321 46.8125C44.4321 47.4656 44.9773 48 45.6437 48H50.4898C51.1562 48 51.7014 47.4656 51.7014 46.8125C51.7014 46.1594 51.1562 45.625 50.4898 45.625ZM62.6052 45.625H57.7591C57.0927 45.625 56.5475 46.1594 56.5475 46.8125C56.5475 47.4656 57.0927 48 57.7591 48H62.6052C63.2716 48 63.8167 47.4656 63.8167 46.8125C63.8167 46.1594 63.2716 45.625 62.6052 45.625ZM74.7206 45.625H69.8744C69.2081 45.625 68.6629 46.1594 68.6629 46.8125C68.6629 47.4656 69.2081 48 69.8744 48H74.7206C75.3869 48 75.9321 47.4656 75.9321 46.8125C75.9321 46.1594 75.3869 45.625 74.7206 45.625ZM86.836 45.625H81.9898C81.3235 45.625 80.7783 46.1594 80.7783 46.8125C80.7783 47.4656 81.3235 48 81.9898 48H86.836C87.5023 48 88.0475 47.4656 88.0475 46.8125C88.0475 46.1594 87.5023 45.625 86.836 45.625ZM50.4898 55.125H45.6437C44.9773 55.125 44.4321 55.6594 44.4321 56.3125C44.4321 56.9656 44.9773 57.5 45.6437 57.5H50.4898C51.1562 57.5 51.7014 56.9656 51.7014 56.3125C51.7014 55.6594 51.1562 55.125 50.4898 55.125ZM62.6052 55.125H57.7591C57.0927 55.125 56.5475 55.6594 56.5475 56.3125C56.5475 56.9656 57.0927 57.5 57.7591 57.5H62.6052C63.2716 57.5 63.8167 56.9656 63.8167 56.3125C63.8167 55.6594 63.2716 55.125 62.6052 55.125ZM74.7206 55.125H69.8744C69.2081 55.125 68.6629 55.6594 68.6629 56.3125C68.6629 56.9656 69.2081 57.5 69.8744 57.5H74.7206C75.3869 57.5 75.9321 56.9656 75.9321 56.3125C75.9321 55.6594 75.3869 55.125 74.7206 55.125Z" fill="#007344"/>
</g>
<path fill-rule="evenodd" clip-rule="evenodd" d="M23.7213 86.2674C33.6978 86.3899 41.8846 78.4017 42.0072 68.4252C42.1297 58.4487 34.1415 50.2619 24.165 50.1393C14.1885 50.0168 6.00163 58.005 5.8791 67.9815C5.75658 77.958 13.7448 86.1449 23.7213 86.2674ZM33.7151 62.6061C34.0543 62.2403 34.0328 61.6688 33.667 61.3296C33.3012 60.9903 32.7297 61.0118 32.3905 61.3777L21.4255 73.2018L15.5428 67.4467C15.1862 67.0979 14.6143 67.1041 14.2654 67.4607C13.9166 67.8173 13.9228 68.3892 14.2794 68.7381L20.8253 75.1419L21.4884 75.7906L22.1193 75.1104L33.7151 62.6061Z" fill="#007344"/>
<defs>
<clipPath id="clip0_3544_93">
<rect width="63" height="57" fill="white" transform="translate(34.7399 10)"/>
</clipPath>
</defs>
</svg>
