<svg width="133" height="127" viewBox="0 0 133 127" fill="none" xmlns="http://www.w3.org/2000/svg">
<g clip-path="url(#clip0_211_215)">
<path fill-rule="evenodd" clip-rule="evenodd" d="M58.9166 79.7527C68.6089 82.1201 78.3852 76.182 80.7526 66.4897C83.12 56.7974 77.182 47.0211 67.4897 44.6537C57.7973 42.2863 48.021 48.2243 45.6536 57.9167C43.2863 67.609 49.2243 77.3853 58.9166 79.7527ZM73.985 58.9518C74.398 58.6719 74.5058 58.1102 74.2258 57.6973C73.9459 57.2843 73.3842 57.1765 72.9713 57.4565L59.6239 66.5057L55.1893 59.5732C54.9205 59.1529 54.3619 59.0302 53.9416 59.299C53.5214 59.5678 53.3986 60.1264 53.6674 60.5467L58.602 68.2608L59.1019 69.0422L59.8698 68.5216L73.985 58.9518Z" fill="#007344"/>
</g>
<g clip-path="url(#clip1_211_215)">
<path fill-rule="evenodd" clip-rule="evenodd" d="M64.1312 26.3599C62.409 33.5223 65.6277 43.7668 70.9996 45.0585C72.8652 45.5071 74.9905 44.8759 77.0422 43.5607C78.2716 45.6648 79.8775 47.1932 81.7432 47.6418C87.1151 48.9335 94.6396 41.2722 96.3618 34.1098C98.084 26.9475 95.7945 20.7146 88.6319 18.9924C86.5341 18.4879 84.6328 18.5182 82.9494 18.9932C81.666 17.8049 79.9862 16.9135 77.8884 16.4091C70.7259 14.6868 65.8534 19.1976 64.1312 26.3599ZM73.2994 27.6174C73.4183 27.1229 73.9155 26.8185 74.41 26.9374C75.8933 27.294 76.8067 28.7857 76.45 30.2691L76.0195 32.0597C75.9006 32.5541 75.4034 32.8586 74.9089 32.7397C73.4255 32.383 72.5122 30.8914 72.8688 29.408L73.2994 27.6174ZM86.9441 29.9512C87.4386 30.0701 87.743 30.5673 87.6241 31.0618L87.1936 32.8524C86.8369 34.3358 85.3452 35.2491 83.8619 34.8924C83.3674 34.7735 83.0629 34.2763 83.1818 33.7819L83.6124 31.9913C83.9691 30.5079 85.4607 29.5945 86.9441 29.9512Z" fill="#8AB61D"/>
<path fill-rule="evenodd" clip-rule="evenodd" d="M78.7496 12.8279C80.7275 13.3035 81.9453 15.2923 81.4697 17.2702L81.0392 19.0608C80.8014 20.0497 81.4103 21.0441 82.3992 21.2819V21.2819C83.3881 21.5197 84.3825 20.9108 84.6203 19.9219L85.0509 18.1313C86.002 14.1756 83.5664 10.1979 79.6107 9.24672L77.8201 8.81617C76.8312 8.57838 75.8368 9.18729 75.599 10.1762C75.3612 11.1651 75.9701 12.1596 76.959 12.3974L78.7496 12.8279Z" fill="#007344"/>
<path d="M95.3934 9.2534L98.9746 10.1145C99.6339 10.273 100.04 10.936 99.8813 11.5953C99.0887 14.8916 95.7739 16.9214 92.4775 16.1287L88.8963 15.2676C88.2371 15.1091 87.8311 14.4461 87.9896 13.7869C88.7823 10.4905 92.0971 8.46078 95.3934 9.2534Z" fill="#007344"/>
</g>
<g clip-path="url(#clip2_211_215)">
<path d="M111.9 27.1215C112.163 26.0274 111.489 24.9272 110.395 24.6641C109.301 24.401 108.201 25.0747 107.937 26.1688L106.34 32.8126C106.176 33.4936 106.383 34.2038 106.83 34.7424C107.655 35.7345 108.318 36.816 108.826 38.0017C109.102 38.6454 109.641 39.1522 110.322 39.3159L116.966 40.9134C118.06 41.1765 119.16 40.5028 119.423 39.4087C119.686 38.3146 119.013 37.2143 117.919 36.9513L112.796 35.7195L118.431 32.2693C119.39 31.6817 119.692 30.4273 119.104 29.4677C118.517 28.508 117.262 28.2064 116.303 28.794L110.668 32.2442L111.9 27.1215Z" fill="#007344"/>
<path d="M95.9153 34.4187C95.6361 33.9628 95.0512 33.7983 94.5871 34.0634C91.852 35.6258 89.1247 37.8815 86.6606 40.4035C86.3386 40.7329 86.2865 41.2391 86.527 41.6319L87.6783 43.5122C88.266 44.4719 87.9644 45.7262 87.0047 46.3139C86.045 46.9015 84.7906 46.5999 84.203 45.6402L84.0683 45.4201C83.7 44.8187 82.8467 44.7649 82.4207 45.3271C80.0431 48.4649 78.2409 51.6028 77.4205 54.0613C77.2424 54.595 77.5768 55.1411 78.1331 55.2251C82.6262 55.9037 90.351 54.8437 97.0514 52.3304C97.64 52.1097 97.8703 51.4067 97.5421 50.8706L96.0895 48.4983C95.5018 47.5386 95.8035 46.2843 96.7631 45.6967C97.7228 45.109 98.9772 45.4106 99.5648 46.3703L101.37 49.3184C101.654 49.7817 102.252 49.9426 102.72 49.6662C106.254 47.5785 108.899 44.9643 109.638 41.8918C110.591 37.9296 107.581 33.0147 103.619 32.062C102.679 31.836 101.696 31.7884 100.685 31.8942C99.9932 31.9666 99.6674 32.7427 100.03 33.3355L100.442 34.0075C101.029 34.9672 100.728 36.2215 99.7682 36.8092C98.8085 37.3968 97.5541 37.0952 96.9665 36.1355L95.9153 34.4187Z" fill="#F45F1F"/>
</g>
<path d="M42.7237 39.185C42.678 39.5653 42.5711 39.9687 42.3991 40.3033C41.3122 42.4192 38.7446 44.0786 35.746 44.7187C32.8688 45.3329 29.987 44.9273 28.1207 43.5946C28.1155 43.5909 28.1056 43.5842 28.0917 43.5748C28.0046 43.5161 27.7639 43.3537 27.5888 43.1841C27.3323 42.936 27.1147 42.6175 26.9558 42.298C26.7981 41.9807 26.656 41.5775 26.6306 41.1469C26.6051 40.7145 26.6966 40.1105 27.1919 39.6478C27.6713 39.1998 28.2971 39.1034 28.8479 39.1386C31.6876 39.2657 33.0659 39.2989 34.368 39.0271C35.667 38.7559 36.9438 38.1688 39.5273 36.8571L39.5418 36.8498C40.1048 36.5737 40.7702 36.3975 41.4237 36.6131C42.1302 36.8462 42.4789 37.4163 42.626 37.8829C42.7684 38.3349 42.7693 38.8065 42.7237 39.185Z" fill="#007344"/>
<path d="M29.9894 32.9296C30.0508 32.489 29.8997 31.9989 29.6793 31.5697C29.4495 31.122 29.1039 30.6606 28.6694 30.2562C27.8034 29.4501 26.5167 28.8136 25.0164 29.0686C23.4631 29.3326 22.5212 30.5552 22.0338 31.7434C21.7866 32.3464 21.6409 32.9727 21.5851 33.532C21.5307 34.0763 21.5555 34.6162 21.7015 35.0208C21.7692 35.2085 21.9281 35.3487 22.1227 35.3925C22.3174 35.4364 22.521 35.378 22.6627 35.2375C23.0567 34.8469 23.4508 34.3434 23.815 33.8782C23.9808 33.6662 24.1406 33.4623 24.2911 33.2806C24.8255 32.6358 25.2639 32.2398 25.6743 32.1309C26.0641 32.0275 26.5676 32.1562 27.2327 32.4629C27.4705 32.5726 27.7042 32.6925 27.9462 32.8167L27.948 32.8176C28.0337 32.8615 28.1203 32.906 28.2086 32.9508C28.5353 33.1163 28.8814 33.2842 29.2192 33.4013C29.3844 33.4585 29.5666 33.4387 29.7158 33.3475C29.8649 33.2561 29.9654 33.1029 29.9894 32.9296Z" fill="#007344"/>
<path d="M36.0603 31.6336C35.8245 31.2565 35.7623 30.7474 35.7882 30.2656C35.8151 29.7632 35.9422 29.2008 36.1738 28.6543C36.6351 27.5648 37.5499 26.4584 39.0234 26.0786C40.5491 25.6853 41.9081 26.4168 42.8382 27.3025C43.3102 27.7519 43.6988 28.2641 43.9783 28.7519C44.2501 29.2265 44.4479 29.7296 44.4798 30.1585C44.4947 30.3574 44.4069 30.5503 44.2471 30.6698C44.0874 30.7893 43.8777 30.8191 43.6909 30.7487C43.1719 30.553 42.6064 30.2544 42.084 29.9784C41.846 29.8526 41.6169 29.7317 41.4053 29.6274C40.6542 29.2569 40.0924 29.0745 39.6733 29.1427C39.2754 29.2074 38.8682 29.5305 38.3864 30.082C38.2141 30.2792 38.0497 30.4841 37.8794 30.6963L37.8782 30.6978C37.818 30.773 37.757 30.8489 37.6946 30.9259C37.464 31.2103 37.2166 31.5049 36.9562 31.7497C36.8286 31.8694 36.6543 31.9258 36.4809 31.9034C36.3075 31.8809 36.1532 31.782 36.0603 31.6336Z" fill="#007344"/>
<path fill-rule="evenodd" clip-rule="evenodd" d="M37.683 53.8666C49.0467 51.4409 56.2925 40.2623 53.8667 28.8986C51.441 17.5348 40.2624 10.2891 28.8986 12.7149C17.5349 15.1406 10.2892 26.3192 12.7149 37.6829C15.1407 49.0467 26.3193 56.2924 37.683 53.8666ZM37.195 51.5804C47.2962 49.4242 53.7367 39.4877 51.5805 29.3866C49.4243 19.2854 39.4878 12.8448 29.3867 15.0011C19.2855 17.1573 12.8449 27.0938 15.0012 37.1949C17.1574 47.2961 27.0938 53.7367 37.195 51.5804Z" fill="#007344"/>
<path fill-rule="evenodd" clip-rule="evenodd" d="M26.0766 76.1386C19.3427 71.9744 10.7092 73.0596 6.29709 80.2926C1.88498 87.5256 3.86611 96.5935 10.6757 101.26C16.3374 105.139 31.9387 112.138 37.0376 114.387C37.6081 114.639 37.8933 114.765 38.1766 114.759C38.4239 114.754 38.6706 114.674 38.8741 114.533C39.1073 114.372 39.2649 114.103 39.5801 113.565C42.3973 108.757 50.9491 93.9498 53.2684 87.4901C56.0578 79.7209 52.443 71.12 44.5446 67.9279C36.6462 64.7358 29.0985 68.8205 26.0766 76.1386Z" fill="#8AB61D" stroke="#8AB61D" stroke-width="2" stroke-linecap="round" stroke-linejoin="round"/>
<rect x="25.5854" y="82.1394" width="4.66192" height="18.6477" transform="rotate(-17.9151 25.5854 82.1394)" fill="white"/>
<rect x="22.5166" y="95.3801" width="4.66192" height="18.6477" transform="rotate(-107.915 22.5166 95.3801)" fill="white"/>
<path fill-rule="evenodd" clip-rule="evenodd" d="M91.7774 70.8175C91.7774 70.8175 90.2919 67.924 92.9686 66.1174C95.6453 64.3107 97.7732 66.7706 97.7732 66.7706L114.394 91.3963C114.394 91.3963 115.88 94.2898 113.203 96.0965C110.526 97.9031 108.399 95.4432 108.399 95.4432L101.1 84.6293L77.1165 100.817L84.4154 111.631C84.4154 111.631 85.9008 114.524 83.2241 116.331C80.5474 118.138 78.4195 115.678 78.4195 115.678L61.7983 91.0521C61.7983 91.0521 60.3128 88.1586 62.9895 86.352C65.6662 84.5453 67.7941 87.0052 67.7941 87.0052L75.093 97.8191L99.0763 81.6314L91.7774 70.8175ZM60.3176 107.792L55.9094 101.261C55.9094 101.261 54.1027 98.584 56.7794 96.7773C59.4561 94.9707 61.175 97.5173 61.175 97.5173L72.1027 113.708C72.1027 113.708 73.9094 116.384 71.2327 118.191C68.556 119.998 66.7493 117.321 66.7493 117.321L62.3411 110.79L59.129 112.958L57.1056 109.96L60.3176 107.792ZM119.087 72.4886L115.875 74.6566L120.283 81.1878C120.283 81.1878 122.09 83.8645 119.413 85.6711C116.737 87.4778 114.93 84.8011 114.93 84.8011L104.09 68.7408C104.09 68.7408 102.283 66.0641 104.96 64.2575C107.637 62.4508 109.443 65.1275 109.443 65.1275L113.852 71.6587L117.064 69.4907L119.087 72.4886Z" fill="#5E5E5E"/>
<defs>
<clipPath id="clip0_211_215">
<rect width="43.3569" height="43.3569" fill="white" transform="translate(47.2876 36) rotate(13.726)"/>
</clipPath>
<clipPath id="clip1_211_215">
<rect width="44.199" height="44.199" fill="white" transform="translate(64.7871) rotate(13.5202)"/>
</clipPath>
<clipPath id="clip2_211_215">
<rect width="48.901" height="48.901" fill="white" transform="translate(83.6567 10.4972) rotate(13.5202)"/>
</clipPath>
</defs>
</svg>
