<svg width="100" height="100" viewBox="0 0 100 100" fill="none" xmlns="http://www.w3.org/2000/svg">
<path d="M60 39H94" stroke="#8AB61D" stroke-width="2.8" stroke-linecap="round"/>
<path d="M61.5 47H94" stroke="#8AB61D" stroke-width="2.8" stroke-linecap="round"/>
<path d="M60 55H94" stroke="#8AB61D" stroke-width="2.8" stroke-linecap="round"/>
<path d="M20 29H14C9.58172 29 6 25.4183 6 21V21C6 16.5817 9.58172 13 14 13H73C77.4183 13 81 16.5817 81 21V21C81 25.4183 77.4183 29 73 29H44" stroke="#8AB61D" stroke-width="2.8"/>
<circle cx="32" cy="48" r="22.6" stroke="#007344" stroke-width="2.8"/>
<path d="M44 68L54 78L61 85L62 86C62.6667 86.6667 64.4 87.6 66 86C67.6 84.4 69.3333 82.6667 70 82C70.6667 81.3333 71.6 79.6 70 78C68.4 76.4 67.3333 75.3333 67 75L55 63L52 60" stroke="#007344" stroke-width="2.8"/>
<path d="M15 48C15 38.6112 22.6112 31 32 31" stroke="#007344" stroke-width="2.8"/>
</svg>
