<svg width="135" height="110" viewBox="0 0 135 110" fill="none" xmlns="http://www.w3.org/2000/svg">
<g clip-path="url(#clip0_3478_1522)">
<ellipse cx="67.7709" cy="57.0189" rx="48.5848" ry="41.3871" transform="rotate(6.55646 67.7709 57.0189)" fill="#8AB61D"/>
<path d="M60.1869 12.6773C62.8828 14.4362 63.4198 16.0677 63.3514 16.6636L66.9275 17.0746C65.7562 11.5061 69.4885 10.5514 69.948 6.55405C70.3589 2.97872 65.202 0.574753 59.4266 3.5335C54.3622 6.12802 56.8171 10.4787 60.1869 12.6773Z" fill="#8AB61D" stroke="#8AB61D" stroke-width="0.7"/>
<path d="M37.3838 20.3437C40.1229 20.9664 41.0814 22.1671 41.2182 22.6897L44.2323 21.9003C41.4939 17.5921 44.1936 15.6053 43.2755 12.1001C42.4544 8.96492 37.5244 8.58102 33.8243 12.9003C30.5797 16.6879 33.9599 19.5653 37.3838 20.3437Z" fill="#8AB61D" stroke="#8AB61D" stroke-width="0.7"/>
<path d="M87.8474 15.9922C89.1932 18.9163 88.7793 20.5833 88.4041 21.0513L91.2127 23.3029C93.1854 17.9655 96.8532 19.1441 99.37 16.0048C101.621 13.1969 98.5354 8.41667 92.0713 7.84693C86.4029 7.34732 86.165 12.3372 87.8474 15.9922Z" fill="#8AB61D" stroke="#8AB61D" stroke-width="0.7"/>
<path d="M109.193 30.3878C108.859 32.8502 107.9 33.7652 107.462 33.9148L108.36 36.5444C111.854 33.8829 113.756 36.1688 116.696 35.1648C119.325 34.2668 119.292 29.8749 115.316 26.8284C111.829 24.1569 109.609 27.3099 109.193 30.3878Z" fill="#8AB61D" stroke="#8AB61D" stroke-width="0.7"/>
<path d="M90.5239 97.6977C88.137 97.0069 87.3728 95.9234 87.289 95.468L84.5562 95.9707C86.6761 99.8178 84.1358 101.364 84.6977 104.419C85.2003 107.151 89.5494 107.763 93.1464 104.277C96.3006 101.22 93.5074 98.5613 90.5239 97.6977Z" fill="#8AB61D" stroke="#8AB61D" stroke-width="0.7"/>
<path d="M119.905 49.4967C119.008 50.9486 115.843 51.6425 115.483 51.6343L115.278 53.4219C118.536 52.5763 121.703 54.1397 124.116 54.195C126.274 54.2444 127.417 51.5101 125.322 48.7005C123.485 46.2368 121.026 47.6819 119.905 49.4967Z" fill="#8AB61D" stroke="#8AB61D" stroke-width="0.7"/>
<path d="M49.7341 98.9193C48.8311 97.4711 49.6141 94.3267 49.7811 94.008L48.2703 93.0305C47.582 96.3258 44.7753 98.4701 43.6549 100.608C42.6528 102.52 44.5961 104.757 48.0436 104.127C51.0667 103.574 50.8628 100.73 49.7341 98.9193Z" fill="#8AB61D" stroke="#8AB61D" stroke-width="0.7"/>
<path d="M113.71 75.9073C112.061 76.3468 109.284 74.6777 109.028 74.4247L107.651 75.5831C110.6 77.2059 111.829 80.5173 113.545 82.2144C115.08 83.7324 117.788 82.5291 118.195 79.0481C118.551 75.9956 115.772 75.3579 113.71 75.9073Z" fill="#8AB61D" stroke="#8AB61D" stroke-width="0.7"/>
<path d="M14.2886 54.0402C15.2925 52.7221 19.1907 51.4263 19.5028 51.4811L19.7083 49.6935C16.7403 50.1059 13.4337 49.2188 11.3402 48.8508C9.46767 48.5216 8.05362 51.0752 9.44811 54.1235C10.6709 56.7965 13.0338 55.6879 14.2886 54.0402Z" fill="#8AB61D" stroke="#8AB61D" stroke-width="0.7"/>
<path d="M29.9004 87.0895C29.9318 85.4329 30.3113 83.5141 32.9936 82.0916L32.1035 80.5278C30.3113 83.5141 26.6488 83.7457 24.7421 84.6853C23.0368 85.5257 22.989 88.6179 25.9147 90.254C28.4803 91.6886 29.8611 89.1602 29.9004 87.0895Z" fill="#8AB61D" stroke="#8AB61D" stroke-width="0.7"/>
<path d="M22.9484 35.3562C25.269 34.4677 26.532 34.871 26.8735 35.1837L28.7502 33.1345C24.7389 31.3445 25.8326 28.579 23.542 26.4813C21.4933 24.605 17.6548 26.7397 16.8884 31.6899C16.2163 36.0307 20.0478 36.4668 22.9484 35.3562Z" fill="#8AB61D" stroke="#8AB61D" stroke-width="0.7"/>
<path d="M61.9969 59.9785C62.5243 60.6429 64.2942 62.0538 67.1545 62.3826C70.0147 62.7113 72.0586 61.7387 72.7229 61.2113" stroke="black" stroke-width="0.7" stroke-linecap="round"/>
<circle cx="84.4763" cy="53.5043" r="7.19775" transform="rotate(6.55646 84.4763 53.5043)" fill="black"/>
<circle cx="86.4695" cy="51.9218" r="1.79944" transform="rotate(6.55646 86.4695 51.9218)" fill="white"/>
<path d="M91.9765 67.0448C91.636 70.0067 88.1586 72.0399 84.2094 71.586C80.2602 71.1321 77.3347 68.363 77.6751 65.4011C78.0155 62.4392 81.493 60.406 85.4422 60.8599C89.3914 61.3138 92.3169 64.0829 91.9765 67.0448Z" fill="#FDC7C7"/>
<circle cx="48.7229" cy="49.3964" r="7.19775" transform="rotate(6.55646 48.7229 49.3964)" fill="black"/>
<circle cx="50.7161" cy="47.8134" r="1.79944" transform="rotate(6.55646 50.7161 47.8134)" fill="white"/>
<path d="M56.2231 62.9364C55.8826 65.8983 52.4052 67.9315 48.456 67.4776C44.5068 67.0237 41.5813 64.2546 41.9217 61.2927C42.2621 58.3308 45.7396 56.2976 49.6888 56.7515C53.638 57.2054 56.5635 59.9745 56.2231 62.9364Z" fill="#FDC7C7"/>
<path d="M67.6013 5.80132C67.6464 6.79412 66.3656 7.63386 64.3801 7.72403C62.3946 7.81421 58.4825 8.12862 58.4374 7.13583C58.3923 6.14303 61.0179 4.0334 63.0034 3.94322C64.9889 3.85305 67.5563 4.80853 67.6013 5.80132Z" fill="#007344"/>
<path d="M113.843 82.2969C113.141 81.7704 112.778 81.3019 113.831 79.8976C114.885 78.4932 116.65 76.577 117.352 77.1035C118.054 77.63 118.234 79.6769 117.181 81.0812C116.128 82.4856 114.545 82.8234 113.843 82.2969Z" fill="#007344"/>
<path d="M125.19 53.5901C124.325 54.0785 122.798 53.1223 121.821 51.3915C120.844 49.6606 121.366 48.3045 122.231 47.816C123.097 47.3275 125.078 48.5459 126.055 50.2767C127.032 52.0076 126.056 53.1016 125.19 53.5901Z" fill="#007344"/>
<path d="M42.1062 12.4093C42.3873 13.3625 40.0263 15.0116 38.1199 15.5737C36.2135 16.1358 34.8259 16.116 34.5448 15.1627C34.2637 14.2095 34.8368 12.3549 36.7432 11.7928C38.6496 11.2307 41.8251 11.456 42.1062 12.4093Z" fill="#007344"/>
<path d="M24.0706 85.5542C24.7274 84.8084 26.1538 84.6516 27.6454 85.9651C29.1371 87.2786 29.8599 88.4634 29.2031 89.2092C28.5463 89.9551 26.6716 90.4586 25.18 89.145C23.6884 87.8315 23.4138 86.3001 24.0706 85.5542Z" fill="#007344"/>
<path d="M43.7459 102.143C43.7518 101.149 44.725 100.094 46.7125 100.106C48.7 100.118 50.0229 100.537 50.017 101.531C50.0111 102.525 48.9273 104.135 46.9398 104.123C44.9523 104.111 43.7399 103.136 43.7459 102.143Z" fill="#007344"/>
<path d="M98.5114 12.9127C98.0934 13.8143 96.5696 13.9685 94.7664 13.1326C92.9632 12.2966 89.3472 10.7708 89.7652 9.86913C90.1832 8.96749 93.4859 8.30703 95.2891 9.14298C97.0923 9.97894 98.9294 12.0111 98.5114 12.9127Z" fill="#007344"/>
<path d="M118.023 33.4302C117.295 34.1063 115.749 33.1464 114.397 31.6895C113.045 30.2326 111.782 26.997 112.51 26.321C113.239 25.645 114.784 26.605 116.136 28.0619C117.488 29.5188 118.752 32.7542 118.023 33.4302Z" fill="#007344"/>
<path d="M85.9792 105.92C85.4471 105.08 86.6722 103.735 88.3509 102.671C90.0296 101.607 93.4411 100.954 93.9732 101.793C94.5053 102.632 93.2799 103.978 91.6013 105.042C89.9226 106.106 86.5113 106.759 85.9792 105.92Z" fill="#007344"/>
<path d="M22.8159 26.7115C23.7496 27.0517 22.3044 30.1091 21.624 31.9766C20.9436 33.8441 20.0078 35.4295 19.074 35.0893C18.1403 34.7491 17.8307 31.2944 18.5111 29.4269C19.1914 27.5595 21.8821 26.3713 22.8159 26.7115Z" fill="#007344"/>
<path d="M11.1051 49.2256C11.8833 49.3187 12.3772 50.6509 12.1909 52.2073C12.0046 53.7636 12.6453 55.1201 11.8671 55.0269C11.0889 54.9338 9.18459 53.4395 9.37088 51.8832C9.55717 50.3268 10.3269 49.1324 11.1051 49.2256Z" fill="#007344"/>
</g>
<defs>
<clipPath id="clip0_3478_1522">
<rect width="135" height="110" fill="white"/>
</clipPath>
</defs>
</svg>
