<svg width="50" height="50" viewBox="0 0 50 50" fill="none" xmlns="http://www.w3.org/2000/svg">
<g clip-path="url(#clip0_3247_2915)">
<path d="M23.6613 37.629C23.6613 37.629 28.389 34.9782 30.156 32.9573C32.1388 30.6942 30.9383 26.8946 28.3081 26.2579C27.1885 25.9811 26.096 26.3686 25.3271 27.1853C24.8685 26.071 23.9783 25.199 22.852 24.9291C20.269 24.2993 18.1108 27.0331 19.0482 30.1682C19.979 33.2965 23.6613 37.629 23.6613 37.629Z" stroke="#8AB61D" stroke-width="1.5" stroke-linejoin="round"/>
<path d="M12.2568 15.046C11.0294 23.7456 8.99934 31.7047 5.67444 40.6672L36.9946 48.3079C40.7512 38.2795 43.3207 27.4275 44.3256 16.6725L31.0058 13.4196" stroke="#8AB61D" stroke-width="1.5" stroke-linecap="round" stroke-linejoin="round"/>
<path d="M27.4448 16.6586L29.6772 18.9495" stroke="#8AB61D" stroke-width="1.5" stroke-linecap="round" stroke-linejoin="round"/>
<path d="M27.8966 7.96596L27.4852 7.54379C26.4938 6.51949 24.8685 6.74096 24.0929 6.96935C23.8636 7.03856 23.6343 7.11469 23.405 7.19774L21.7257 5.47444C21.9482 4.38093 21.7459 3.50198 21.2131 2.95523C21.1119 2.85141 20.8826 2.60918 20.8017 2.53305C20.397 2.12472 19.8238 1.91017 19.1359 1.91017C18.7987 1.91017 18.4277 1.95862 18.0433 2.06243C15.6289 2.713 13.1672 5.25989 12.5265 7.72373C12.2096 8.94873 12.4051 9.92458 12.9851 10.5198C13.1268 10.6651 13.2414 10.7897 13.3898 10.935C13.781 11.3364 14.3475 11.5579 15.0489 11.5579C15.2984 11.5579 15.5749 11.5302 15.8582 11.4679L17.5375 13.1982C17.4431 13.4404 17.3621 13.6896 17.3014 13.9318C16.9103 15.4405 17.1531 16.6448 17.868 17.3715C18.0366 17.5445 18.0838 17.5999 18.2659 17.7798C18.8594 18.3888 19.9991 18.8179 21.6582 18.3542C24.6189 17.5237 27.6606 14.4232 28.4429 11.3918C28.8341 9.88997 28.5913 8.68574 27.8899 7.95904L27.8966 7.96596Z" stroke="#8AB61D" stroke-width="1.5" stroke-linecap="round" stroke-linejoin="round"/>
<path d="M26.0825 10.0145C25.4417 12.4991 23.061 14.9699 20.5657 15.6689" stroke="#8AB61D" stroke-width="1.5" stroke-linecap="round" stroke-linejoin="round"/>
<path d="M19.7496 4.89308C19.1764 6.85862 17.1734 8.80339 15.204 9.25325" stroke="#8AB61D" stroke-width="1.5" stroke-linecap="round" stroke-linejoin="round"/>
<path d="M26.6288 20.3682C20.4848 19.3785 14.1992 22.2092 12.9919 27.3099C11.6768 32.8535 16.0673 38.8263 22.798 40.6534C29.5288 42.4805 36.0572 39.4699 37.3723 33.9263C38.6874 28.3826 32.9009 23.8218 26.332 23.0259" stroke="#8AB61D" stroke-width="1.5" stroke-miterlimit="10" stroke-linecap="round"/>
</g>
<defs>
<clipPath id="clip0_3247_2915">
<rect width="40" height="49" fill="white" transform="translate(5)"/>
</clipPath>
</defs>
</svg>
