<svg width="50" height="50" viewBox="0 0 50 50" fill="none" xmlns="http://www.w3.org/2000/svg">
<g clip-path="url(#clip0_3247_2912)">
<path d="M19.4345 39.9693C19.7966 41.0112 21.6587 42.4102 24.1933 41.5247L25.021 38.0046C26.1442 39.0316 28.2206 38.1609 28.2206 38.1609L29.6838 30.0865" stroke="#8AB61D" stroke-width="2" stroke-linejoin="round"/>
<mask id="path-2-inside-1_3247_2912" fill="white">
<path d="M31.4351 28.5609C31.908 28.8735 33.216 29.6995 33.785 30.0493C34.0953 30.2502 34.6052 30.2949 34.9229 30.0865C36.3122 29.1488 48.3054 20.8437 48.2611 13.9079C48.2315 9.37581 44.5441 5.70698 40.0365 5.74418C37.9305 5.75907 35.758 6.73395 34.2505 8.23721C32.7209 6.75628 30.5336 5.81116 28.4275 5.82605C23.9273 5.85581 20.2843 9.5693 20.3138 14.1014C20.3286 16.6316 21.777 19.4819 24.6219 22.5702C25.2057 23.2772 25.6786 23.7609 25.819 23.9247"/>
</mask>
<path d="M33.785 30.0493L34.8719 28.3704C34.8588 28.362 34.8456 28.3536 34.8323 28.3455L33.785 30.0493ZM34.9229 30.0865L36.0197 31.759C36.0271 31.7541 36.0345 31.7492 36.0418 31.7442L34.9229 30.0865ZM48.2611 13.9079L50.261 13.8951L50.261 13.8949L48.2611 13.9079ZM40.0365 5.74418L40.0506 7.74414L40.053 7.74412L40.0365 5.74418ZM34.2505 8.23721L32.8593 9.67411C33.6431 10.4329 34.8903 10.4237 35.6627 9.6534L34.2505 8.23721ZM28.4275 5.82605L28.4408 7.826L28.4417 7.826L28.4275 5.82605ZM20.3138 14.1014L22.3138 14.0897L22.3138 14.0883L20.3138 14.1014ZM24.6219 22.5702L26.1641 21.2968C26.1411 21.2689 26.1174 21.2417 26.0929 21.2152L24.6219 22.5702ZM30.3324 30.2295C30.8304 30.5586 32.1586 31.3972 32.7376 31.7531L34.8323 28.3455C34.2733 28.0019 32.9856 27.1884 32.5378 26.8924L30.3324 30.2295ZM32.698 31.7282C33.1893 32.0462 33.7461 32.1938 34.252 32.2189C34.7516 32.2437 35.4118 32.1576 36.0197 31.759L33.8262 28.414C34.1163 28.2238 34.3628 28.2195 34.4504 28.2239C34.5443 28.2285 34.691 28.2533 34.8719 28.3704L32.698 31.7282ZM36.0418 31.7442C36.7743 31.2499 40.2304 28.8637 43.5195 25.6846C45.163 24.0961 46.8184 22.2587 48.0722 20.3134C49.3093 18.3938 50.2756 16.1841 50.261 13.8951L46.2611 13.9207C46.2686 15.0996 45.7524 16.529 44.7099 18.1465C43.684 19.7385 42.2626 21.3365 40.7396 22.8084C37.696 25.7503 34.4608 27.9855 33.804 28.4288L36.0418 31.7442ZM50.261 13.8949C50.2243 8.27217 45.6487 3.69779 40.02 3.74425L40.053 7.74412C43.4395 7.71616 46.2387 10.4795 46.2611 13.9209L50.261 13.8949ZM40.0224 3.74423C37.3483 3.76313 34.6852 4.97929 32.8383 6.82102L35.6627 9.6534C36.8308 8.48862 38.5127 7.755 40.0506 7.74413L40.0224 3.74423ZM35.6417 6.8003C33.7686 4.98687 31.0879 3.80719 28.4134 3.8261L28.4417 7.826C29.9792 7.81513 31.6732 8.52569 32.8593 9.67411L35.6417 6.8003ZM28.4143 3.82609C22.7976 3.86324 18.2772 8.48998 18.3139 14.1144L22.3138 14.0883C22.2914 10.6486 25.0571 7.84838 28.4408 7.826L28.4143 3.82609ZM18.3139 14.1131C18.333 17.38 20.1757 20.6955 23.1509 23.9253L26.0929 21.2152C23.3782 18.2682 22.3243 15.8832 22.3138 14.0897L18.3139 14.1131ZM23.0797 23.8437C23.3977 24.2287 23.684 24.5512 23.9065 24.7961C24.0168 24.9175 24.1132 25.0217 24.1843 25.0989C24.2209 25.1386 24.2488 25.169 24.271 25.1934C24.2948 25.2195 24.3022 25.2282 24.3008 25.2266L27.3372 22.6227C27.2735 22.5484 27.1895 22.4574 27.1254 22.3879C27.0501 22.3062 26.9654 22.2145 26.867 22.1063C26.672 21.8916 26.4299 21.6187 26.1641 21.2968L23.0797 23.8437Z" fill="#8AB61D" mask="url(#path-2-inside-1_3247_2912)"/>
<path d="M23 18.5L19.1241 29.1637L28.4497 21.8633C29.3069 21.2084 31.1469 20.7395 32.8095 22.7116C34.1101 24.2521 34.014 26.373 32.8391 27.3405L24.2155 34.8344L17.5797 41.9563C16.486 43.1544 15.1781 44.0102 12.6213 44.174L0.857178 44.2558" stroke="#8AB61D" stroke-width="2" stroke-linejoin="round"/>
<path d="M0.184753 31.054L4.98795 29.826L14.2618 17.1153C14.2618 17.1153 19.8743 13.5642 21.5 12.5" stroke="#8AB61D" stroke-width="2" stroke-linejoin="round"/>
</g>
<defs>
<clipPath id="clip0_3247_2912">
<rect width="49" height="40" fill="white" transform="translate(0 5)"/>
</clipPath>
</defs>
</svg>
