<svg width="54" height="54" viewBox="0 0 54 54" fill="none" xmlns="http://www.w3.org/2000/svg">
<g clip-path="url(#clip0_3255_2921)">
<path d="M20.794 46.2535L21.3375 35.3763C21.3375 35.3763 15.1663 30.7253 12.8511 20.4005C12.4491 18.9672 12.3821 17.9519 13.5285 17.3322C14.4367 16.8395 16.0893 16.8096 16.7072 18.4446C16.7072 18.4446 20.3102 29.8667 29.3027 31.2553C36.4566 32.3602 38.9802 35.0105 39.4938 39.318C43.1936 35.869 46.7816 32.1661 48.8586 29.0903C55.1787 19.7212 48.1588 7.74655 37.4764 7.74655C32.9355 7.74655 28.9156 9.97873 26.4218 13.3979C23.928 9.97873 19.9156 7.74655 15.3672 7.74655C4.87842 7.74655 -1.82878 18.8552 3.76924 28.7917C7.26799 35.0105 15.3003 41.9459 20.8015 46.2535H20.794Z" stroke="#8AB61D" stroke-width="2" stroke-linejoin="round"/>
<path d="M25.3424 22.2669C25.7742 19.3703 28.469 17.3695 31.3573 17.8025C34.2457 18.2355 36.2407 20.9306 35.8089 23.8272C35.3772 26.7238 32.6898 28.7245 29.794 28.2915C26.9057 27.8585 24.9107 25.1635 25.3424 22.2669Z" stroke="#8AB61D" stroke-width="2" stroke-linejoin="round"/>
<path d="M18.4342 15.1672C19.5211 14.7566 20.727 15.3091 21.1365 16.3916L21.7618 18.0564C22.1712 19.1463 21.6278 20.3557 20.5409 20.7738C19.4541 21.1844 18.2407 20.632 17.8387 19.5495L17.2134 17.8847C16.804 16.7947 17.3474 15.5853 18.4342 15.1672Z" stroke="#8AB61D" stroke-width="2" stroke-linejoin="round"/>
<path d="M9.27047 19.333C10.3573 18.9224 11.5633 19.4748 11.9727 20.5573L12.598 22.2221C13.0074 23.312 12.464 24.5215 11.3772 24.9395C10.2903 25.3501 9.08436 24.7977 8.67493 23.7152L8.04962 22.0504C7.64019 20.9604 8.19106 19.751 9.27047 19.333Z" stroke="#8AB61D" stroke-width="2" stroke-linejoin="round"/>
<path d="M33.33 43.857V40.1168" stroke="#8AB61D" stroke-width="2" stroke-linejoin="round"/>
</g>
<defs>
<clipPath id="clip0_3255_2921">
<rect width="51" height="40" fill="white" transform="translate(1 7)"/>
</clipPath>
</defs>
</svg>
