<svg width="50" height="50" viewBox="0 0 50 50" fill="none" xmlns="http://www.w3.org/2000/svg">
<g clip-path="url(#clip0_3247_2910)">
<path d="M38.7568 35.2644C38.7568 35.2644 33.3672 31.9042 33.3672 28.934C33.3672 27.2764 34.6998 25.9263 36.3524 25.9263C37.3424 25.9263 38.2134 26.4138 38.7568 27.1639C39.3003 26.4138 40.1712 25.9263 41.1613 25.9263C42.8065 25.9263 44.139 27.2689 44.139 28.934C44.139 31.7392 38.7494 35.2644 38.7494 35.2644H38.7568Z" stroke="#8AB61D" stroke-width="2" stroke-linejoin="round"/>
<path d="M27.3375 26.8264L33.7916 20.3235" stroke="#8AB61D" stroke-width="2" stroke-miterlimit="10" stroke-linecap="round"/>
<path d="M20.8313 33.3818L22.67 31.5367" stroke="#8AB61D" stroke-width="2" stroke-miterlimit="10" stroke-linecap="round"/>
<path d="M28.3052 29.1815C28.3052 31.0266 26.8238 32.5117 25 32.5117C23.1762 32.5117 21.6948 31.0191 21.6948 29.1815C21.6948 27.3439 23.1762 25.8513 25 25.8513C26.8238 25.8513 28.3052 27.3439 28.3052 29.1815Z" stroke="#8AB61D" stroke-width="2" stroke-miterlimit="10" stroke-linecap="round"/>
<path d="M11 44.25H39" stroke="#8AB61D" stroke-width="2" stroke-linecap="round" stroke-linejoin="round"/>
<mask id="path-6-inside-1_3247_2910" fill="white">
<path d="M42.8139 44.25C46.2084 40.1772 48.2556 34.9269 48.2556 29.189C48.2556 16.2432 37.8486 5.75755 25 5.75755C12.1514 5.75755 1.74442 16.2432 1.74442 29.1815C1.74442 34.9194 3.79156 40.1697 7.1861 44.2425"/>
</mask>
<path d="M41.2776 42.9695C40.5704 43.818 40.6849 45.0791 41.5334 45.7863C42.3819 46.4935 43.643 46.3789 44.3502 45.5305L41.2776 42.9695ZM5.64977 45.523C6.35697 46.3714 7.61811 46.486 8.4666 45.7788C9.31509 45.0716 9.42964 43.8105 8.72244 42.962L5.64977 45.523ZM44.3502 45.5305C48.0337 41.111 50.2556 35.4112 50.2556 29.189H46.2556C46.2556 34.4425 44.3832 39.2434 41.2776 42.9695L44.3502 45.5305ZM50.2556 29.189C50.2556 15.1529 38.9674 3.75755 25 3.75755V7.75755C36.7299 7.75755 46.2556 17.3335 46.2556 29.189H50.2556ZM25 3.75755C11.033 3.75755 -0.255585 15.1524 -0.255585 29.1815H3.74442C3.74442 17.334 13.2697 7.75755 25 7.75755V3.75755ZM-0.255585 29.1815C-0.255585 35.4037 1.9663 41.1035 5.64977 45.523L8.72244 42.962C5.61682 39.2359 3.74442 34.435 3.74442 29.1815H-0.255585Z" fill="#8AB61D" mask="url(#path-6-inside-1_3247_2910)"/>
<path d="M11.1687 39.1646C9.16626 36.352 7.99008 32.9092 7.99008 29.1815C7.99008 19.7159 15.6055 12.0429 25 12.0429C29.6228 12.0429 33.8065 13.8956 36.8735 16.9107" stroke="#8AB61D" stroke-width="2" stroke-miterlimit="10" stroke-linecap="round"/>
<path d="M25.3548 16.3308C27.2531 16.6833 28.9652 17.5759 30.335 18.8284" stroke="#8AB61D" stroke-width="2" stroke-miterlimit="10" stroke-linecap="round"/>
<path d="M25.9578 20.531C26.5831 20.7561 27.1712 21.0936 27.6998 21.5061" stroke="#8AB61D" stroke-width="2" stroke-miterlimit="10" stroke-linecap="round"/>
</g>
<defs>
<clipPath id="clip0_3247_2910">
<rect width="48" height="40" fill="white" transform="translate(1 5)"/>
</clipPath>
</defs>
</svg>
