<svg width="50" height="50" viewBox="0 0 50 50" fill="none" xmlns="http://www.w3.org/2000/svg">
<g clip-path="url(#clip0_3247_2913)">
<path d="M42.7692 8.33333H36.8462V7.5C36.8462 6.125 35.7038 5 34.3077 5C32.9115 5 31.7692 6.125 31.7692 7.5V8.33333H18.2308V7.5C18.2308 6.125 17.0885 5 15.6923 5C14.2962 5 13.1538 6.125 13.1538 7.5V8.33333H7.23077C4.89538 8.33333 3 10.2 3 12.5V40.8333C3 43.1333 4.89538 45 7.23077 45H42.7692C45.1046 45 47 43.1333 47 40.8333V12.5C47 10.2 45.1046 8.33333 42.7692 8.33333ZM33.4615 7.5C33.4615 7.04167 33.8423 6.66667 34.3077 6.66667C34.7731 6.66667 35.1538 7.04167 35.1538 7.5V12.5C35.1538 12.9583 34.7731 13.3333 34.3077 13.3333C33.8423 13.3333 33.4615 12.9583 33.4615 12.5V7.5ZM14.8462 7.5C14.8462 7.04167 15.2269 6.66667 15.6923 6.66667C16.1577 6.66667 16.5385 7.04167 16.5385 7.5V12.5C16.5385 12.9583 16.1577 13.3333 15.6923 13.3333C15.2269 13.3333 14.8462 12.9583 14.8462 12.5V7.5ZM45.3077 40.8333C45.3077 42.2083 44.1654 43.3333 42.7692 43.3333H7.23077C5.83462 43.3333 4.69231 42.2083 4.69231 40.8333V18.3333H42.7692C43.2346 18.3333 43.6154 17.9583 43.6154 17.5C43.6154 17.0417 43.2346 16.6667 42.7692 16.6667H4.69231V12.5C4.69231 11.125 5.83462 10 7.23077 10H13.1538V12.5C13.1538 13.875 14.2962 15 15.6923 15C17.0885 15 18.2308 13.875 18.2308 12.5V10H31.7692V12.5C31.7692 13.875 32.9115 15 34.3077 15C35.7038 15 36.8462 13.875 36.8462 12.5V10H42.7692C44.1654 10 45.3077 11.125 45.3077 12.5V40.8333Z" fill="#8AB61D"/>
<path d="M14 23.3333H10.6154C10.15 23.3333 9.76923 23.7083 9.76923 24.1667C9.76923 24.625 10.15 25 10.6154 25H14C14.4654 25 14.8461 24.625 14.8461 24.1667C14.8461 23.7083 14.4654 23.3333 14 23.3333ZM22.4615 23.3333H19.0769C18.6115 23.3333 18.2308 23.7083 18.2308 24.1667C18.2308 24.625 18.6115 25 19.0769 25H22.4615C22.9269 25 23.3077 24.625 23.3077 24.1667C23.3077 23.7083 22.9269 23.3333 22.4615 23.3333ZM30.9231 23.3333H27.5385C27.0731 23.3333 26.6923 23.7083 26.6923 24.1667C26.6923 24.625 27.0731 25 27.5385 25H30.9231C31.3885 25 31.7692 24.625 31.7692 24.1667C31.7692 23.7083 31.3885 23.3333 30.9231 23.3333ZM36 25H39.3846C39.85 25 40.2308 24.625 40.2308 24.1667C40.2308 23.7083 39.85 23.3333 39.3846 23.3333H36C35.5346 23.3333 35.1538 23.7083 35.1538 24.1667C35.1538 24.625 35.5346 25 36 25ZM14 30H10.6154C10.15 30 9.76923 30.375 9.76923 30.8333C9.76923 31.2917 10.15 31.6667 10.6154 31.6667H14C14.4654 31.6667 14.8461 31.2917 14.8461 30.8333C14.8461 30.375 14.4654 30 14 30ZM22.4615 30H19.0769C18.6115 30 18.2308 30.375 18.2308 30.8333C18.2308 31.2917 18.6115 31.6667 19.0769 31.6667H22.4615C22.9269 31.6667 23.3077 31.2917 23.3077 30.8333C23.3077 30.375 22.9269 30 22.4615 30ZM30.9231 30H27.5385C27.0731 30 26.6923 30.375 26.6923 30.8333C26.6923 31.2917 27.0731 31.6667 27.5385 31.6667H30.9231C31.3885 31.6667 31.7692 31.2917 31.7692 30.8333C31.7692 30.375 31.3885 30 30.9231 30ZM39.3846 30H36C35.5346 30 35.1538 30.375 35.1538 30.8333C35.1538 31.2917 35.5346 31.6667 36 31.6667H39.3846C39.85 31.6667 40.2308 31.2917 40.2308 30.8333C40.2308 30.375 39.85 30 39.3846 30ZM14 36.6667H10.6154C10.15 36.6667 9.76923 37.0417 9.76923 37.5C9.76923 37.9583 10.15 38.3333 10.6154 38.3333H14C14.4654 38.3333 14.8461 37.9583 14.8461 37.5C14.8461 37.0417 14.4654 36.6667 14 36.6667ZM22.4615 36.6667H19.0769C18.6115 36.6667 18.2308 37.0417 18.2308 37.5C18.2308 37.9583 18.6115 38.3333 19.0769 38.3333H22.4615C22.9269 38.3333 23.3077 37.9583 23.3077 37.5C23.3077 37.0417 22.9269 36.6667 22.4615 36.6667ZM30.9231 36.6667H27.5385C27.0731 36.6667 26.6923 37.0417 26.6923 37.5C26.6923 37.9583 27.0731 38.3333 27.5385 38.3333H30.9231C31.3885 38.3333 31.7692 37.9583 31.7692 37.5C31.7692 37.0417 31.3885 36.6667 30.9231 36.6667Z" fill="#8AB61D"/>
</g>
<defs>
<clipPath id="clip0_3247_2913">
<rect width="44" height="40" fill="white" transform="translate(3 5)"/>
</clipPath>
</defs>
</svg>
