<svg width="50" height="50" viewBox="0 0 50 50" fill="none" xmlns="http://www.w3.org/2000/svg">
<g clip-path="url(#clip0_3247_2914)">
<path d="M18.1168 41.3055C15.8223 39.4757 13.2373 37.2883 10.8148 34.9568C7.82826 32.0824 5.1397 29.037 3.52977 26.2076L3.52949 26.2071C-1.47448 17.4247 4.50429 7.70921 13.8038 7.70921C17.8418 7.70921 21.4039 9.66704 23.6201 12.6716C23.8087 12.9272 24.1073 13.078 24.4249 13.078C24.7425 13.078 25.0411 12.9272 25.2296 12.6716C27.4457 9.66729 31.0149 7.70921 35.046 7.70921C44.573 7.70921 50.7378 18.24 45.1557 26.4222C43.4655 28.897 40.6618 31.8575 37.604 34.7546C37.1646 33.2951 36.3859 32.0169 35.121 30.9631C33.3919 29.5225 30.8587 28.5908 27.3438 28.054L27.3437 28.054C23.4259 27.4558 20.6097 24.6824 18.7305 21.9027C17.7993 20.5252 17.1239 19.1828 16.6815 18.1836C16.4608 17.685 16.2993 17.2748 16.1939 16.992C16.1412 16.8506 16.1026 16.7414 16.0778 16.6691C16.0653 16.633 16.0563 16.6061 16.0507 16.5891L16.0448 16.5711L16.0439 16.5684C16.0439 16.5682 16.0438 16.5681 16.0437 16.5679C16.0437 16.5679 16.0437 16.5678 16.0437 16.5678C16.0437 16.5678 16.0437 16.5678 16.0437 16.5678C16.0381 16.5501 16.0319 16.5326 16.0253 16.5153C15.6038 15.4123 14.7803 14.808 13.8851 14.6097C13.0456 14.4237 12.1873 14.6003 11.5645 14.9344L12.0372 15.8156M18.1168 41.3055L36.7778 35.5303C35.9657 32.1247 33.3841 29.988 27.1928 29.0425C18.5529 27.7234 15.0912 16.8723 15.0912 16.8723C14.4976 15.3191 12.9098 15.3475 12.0372 15.8156M18.1168 41.3055L18.5158 33.4103C18.3472 33.2648 18.134 33.0733 17.8859 32.8349C17.2617 32.2351 16.4149 31.3371 15.4993 30.1249C13.6703 27.7033 11.5665 24.0273 10.417 18.9775M12.0372 15.8156C10.9358 16.4042 11.0001 17.3688 11.3864 18.7305M12.0372 15.8156L11.5659 14.9336C10.7614 15.3636 10.2897 16.0099 10.1651 16.8337C10.0581 17.5418 10.2252 18.2974 10.417 18.9775M11.3864 18.7305L10.4111 18.9517C10.4131 18.9603 10.415 18.9689 10.417 18.9775M11.3864 18.7305C13.6107 28.539 19.5399 32.9574 19.5399 32.9574M11.3864 18.7305L10.4243 19.0034C10.4219 18.9947 10.4194 18.9861 10.417 18.9775M37.8713 35.8771C41.1043 32.8424 44.1528 29.6639 45.9817 26.9858C52.054 18.0851 45.3094 6.70921 35.046 6.70921C31.0554 6.70921 27.4837 8.48332 25.0697 11.2717C25.1237 11.3421 25.177 11.413 25.2296 11.4844L37.8713 35.8771Z" stroke="#8AB61D" stroke-width="2" stroke-linejoin="round"/>
<path d="M23.3878 19.5035C23.8027 16.7518 26.3918 14.8511 29.1668 15.2624C31.9419 15.6738 33.8587 18.234 33.4439 20.9858C33.029 23.7376 30.4471 25.6383 27.6649 25.227C24.8898 24.8156 22.973 22.2553 23.3878 19.5035Z" stroke="#8AB61D" stroke-width="2" stroke-linejoin="round"/>
<path d="M17.7506 13.7589C18.7948 13.3688 19.9535 13.8936 20.3468 14.922L20.9476 16.5036C21.341 17.539 20.8189 18.688 19.7746 19.0851C18.7304 19.4752 17.5646 18.9504 17.1784 17.922L16.5776 16.3404C16.1842 15.305 16.7063 14.156 17.7506 13.7589Z" stroke="#8AB61D" stroke-width="2" stroke-linejoin="round"/>
<path d="M6.94613 17.7163C7.99036 17.3262 9.14902 17.8511 9.54239 18.8794L10.1432 20.461C10.5366 21.4965 10.0144 22.6454 8.97021 23.0426C7.92599 23.4326 6.76732 22.9078 6.37395 21.8794L5.77316 20.2979C5.37979 19.2624 5.90905 18.1135 6.94613 17.7163Z" stroke="#8AB61D" stroke-width="2" stroke-linejoin="round"/>
<path d="M31.0622 41.0142V37.461" stroke="#8AB61D" stroke-width="2" stroke-linejoin="round"/>
</g>
<defs>
<clipPath id="clip0_3247_2914">
<rect width="49" height="38" fill="white" transform="translate(0 6)"/>
</clipPath>
</defs>
</svg>
